<?xml version="1.0" standalone="no"?>
<!DOCTYPE svg PUBLIC "-//W3C//DTD SVG 20010904//EN"
 "http://www.w3.org/TR/2001/REC-SVG-20010904/DTD/svg10.dtd">
<svg version="1.0" xmlns="http://www.w3.org/2000/svg"
 width="1000.000000pt" height="1000.000000pt" viewBox="0 0 1000.000000 1000.000000"
 preserveAspectRatio="xMidYMid meet">
<metadata>
Created by potrace 1.11, written by Peter Selinger 2001-2013
</metadata>
<g transform="translate(0.000000,1000.000000) scale(0.100000,-0.100000)"
fill="#000000" stroke="none">
<path d="M4405 8589 c-441 -442 -566 -572 -555 -579 14 -9 7 -14 -13 -11 -5 1
-6 -3 -2 -8 3 -6 13 -7 23 -4 15 6 15 5 3 -10 -11 -14 -11 -18 4 -23 9 -4 21
-18 26 -31 5 -14 18 -27 29 -30 11 -3 20 -10 20 -15 0 -5 4 -6 10 -3 6 4 7 -1
3 -11 -4 -12 -3 -15 5 -10 8 4 12 0 12 -11 0 -15 2 -16 10 -3 8 13 10 12 10
-2 0 -10 4 -18 8 -18 5 0 19 -9 32 -20 13 -11 19 -20 15 -20 -5 0 -16 7 -26
16 -13 12 -19 12 -25 3 -4 -7 -3 -10 3 -6 6 4 16 0 23 -8 7 -8 19 -15 27 -15
8 0 11 -4 8 -10 -3 -6 4 -10 17 -10 18 0 20 -2 8 -10 -13 -8 -12 -10 3 -10 10
0 20 -7 23 -15 4 -8 11 -12 17 -8 6 4 8 0 4 -11 -5 -11 -3 -15 5 -10 7 5 9 2
5 -9 -4 -11 -2 -14 8 -10 10 3 18 -4 25 -21 5 -15 18 -29 27 -33 10 -3 26 -15
36 -25 10 -10 24 -15 30 -11 7 4 5 -2 -3 -12 -9 -11 -10 -16 -2 -11 7 4 12 2
12 -7 0 -8 10 -17 21 -20 15 -4 20 -11 15 -23 -6 -15 -4 -15 11 -3 9 8 15 10
12 4 -3 -5 6 -21 19 -35 20 -20 24 -21 18 -6 -5 15 -4 17 8 7 11 -9 15 -9 19
1 4 10 8 10 17 -2 9 -12 10 -10 5 9 -5 18 -4 22 6 16 9 -6 11 -3 6 9 -4 9 -3
15 1 12 5 -3 16 4 25 15 9 10 13 19 9 19 -4 0 1 5 11 11 9 5 23 7 30 3 6 -4 9
-4 5 1 -12 13 12 47 28 41 8 -3 13 -2 10 3 -3 4 2 17 10 27 9 10 12 12 8 4 -7
-13 -6 -13 10 -1 13 11 14 16 4 23 -9 7 -6 8 9 5 16 -4 20 -1 16 11 -4 10 -2
13 5 8 6 -3 13 -2 17 4 3 5 0 10 -7 11 -7 0 -3 4 10 10 13 5 21 13 17 19 -4 6
1 7 11 3 12 -5 15 -3 9 6 -6 10 -2 11 16 6 19 -5 21 -4 9 5 -10 8 -11 13 -3
16 21 9 53 41 46 48 -3 3 -1 6 5 6 6 0 10 6 8 13 -1 6 -1 9 1 5 8 -13 23 -9
23 7 0 8 9 19 20 25 11 6 18 15 15 20 -4 6 2 7 12 3 10 -3 15 -3 11 2 -9 10
31 47 43 40 4 -3 11 0 15 6 5 8 3 9 -6 4 -8 -5 -11 -3 -8 6 3 8 13 13 22 13
14 -2 15 1 4 15 -7 9 -9 13 -4 9 10 -9 39 19 32 30 -3 5 7 7 22 5 19 -3 23 -2
13 5 -11 8 -10 12 6 21 16 8 25 7 42 -8 11 -10 18 -21 14 -25 -6 -6 12 -10 30
-7 5 1 6 -3 2 -9 -3 -5 -1 -10 4 -10 6 0 11 -7 11 -15 0 -10 6 -12 18 -8 14 6
15 4 5 -9 -17 -19 -4 -32 15 -15 13 9 14 9 8 0 -4 -8 -2 -13 6 -13 10 0 9 -3
-2 -11 -12 -9 -10 -10 8 -6 20 5 22 3 10 -11 -11 -13 -11 -14 1 -7 11 6 13 4
8 -9 -4 -9 -3 -15 2 -12 5 3 14 -1 21 -9 7 -8 19 -15 26 -15 8 0 14 -5 14 -11
0 -5 6 -7 13 -3 9 6 9 5 0 -8 -17 -19 -4 -32 15 -15 13 10 15 9 9 -5 -4 -12
-2 -18 8 -18 14 0 20 -13 16 -34 -1 -5 6 -3 15 5 12 9 15 9 10 2 -4 -8 -2 -13
5 -13 8 0 9 -3 0 -14 -9 -11 -6 -13 16 -9 24 3 25 2 8 -6 -18 -9 -18 -10 -2
-10 20 -1 47 -24 47 -40 0 -6 9 -11 19 -11 11 0 23 -4 26 -10 3 -5 0 -7 -8 -4
-8 3 -14 -1 -14 -10 0 -8 4 -13 8 -11 15 10 38 -7 32 -23 -5 -14 -3 -15 7 -5
10 9 17 6 34 -15 12 -14 21 -29 21 -32 1 -15 19 -31 32 -26 8 3 11 1 8 -4 -3
-6 -1 -10 4 -10 6 0 11 -8 11 -18 0 -10 6 -19 13 -20 6 0 21 -2 32 -4 14 -2
20 2 19 15 -1 11 4 16 14 15 9 -2 17 3 18 10 1 6 2 17 3 23 1 8 5 8 15 0 11
-9 13 -7 12 11 -1 14 4 22 12 20 8 -1 16 7 19 18 5 17 8 18 21 8 14 -12 14
-10 2 12 -10 20 -10 23 0 13 11 -10 16 -8 25 10 6 12 23 28 38 35 15 7 30 24
33 38 3 13 12 24 18 24 17 0 66 53 66 71 0 12 2 12 10 -1 9 -13 10 -13 11 0 1
8 1 19 0 23 -1 4 7 7 16 5 10 -2 18 3 19 10 1 6 2 17 3 23 1 8 5 8 15 0 11 -9
13 -7 12 11 -1 14 4 22 12 20 7 -1 15 6 19 15 12 36 24 44 42 31 9 -7 13 -8 9
-4 -4 5 0 15 10 23 10 9 11 11 2 7 -12 -7 -13 -5 -3 8 7 8 9 19 5 23 -4 5 -2
5 5 1 7 -4 13 3 15 21 3 25 -58 89 -559 591 -310 309 -566 562 -570 562 -5 0
-264 -257 -578 -571z m-480 -688 c-6 -5 -25 10 -25 20 0 5 6 4 14 -3 8 -7 12
-15 11 -17z m1258 -21 c9 -11 13 -20 7 -20 -5 0 -14 9 -20 20 -6 11 -9 20 -8
20 2 0 11 -9 21 -20z m-473 -80 c0 -5 -5 -10 -11 -10 -5 0 -7 5 -4 10 3 6 8
10 11 10 2 0 4 -4 4 -10z m1180 -33 c0 -2 -10 -12 -22 -23 l-23 -19 19 23 c18
21 26 27 26 19z m-80 -87 c0 -5 -5 -10 -11 -10 -5 0 -7 5 -4 10 3 6 8 10 11
10 2 0 4 -4 4 -10z m-1605 -59 c-6 -5 -25 10 -25 20 0 5 6 4 14 -3 8 -7 12
-15 11 -17z m1400 -141 c3 -5 1 -10 -4 -10 -6 0 -11 5 -11 10 0 6 2 10 4 10 3
0 8 -4 11 -10z"/>
<path d="M5936 7694 c-154 -153 -255 -261 -252 -269 3 -8 0 -16 -7 -19 -9 -3
-9 -5 1 -5 6 -1 12 -10 12 -20 0 -11 5 -23 10 -26 6 -4 7 -11 4 -17 -4 -6 -2
-8 4 -5 15 10 42 -3 42 -20 0 -8 5 -11 12 -7 8 5 9 2 5 -9 -3 -9 -1 -19 5 -23
7 -4 8 -3 4 4 -4 7 -2 12 3 12 6 0 11 -4 11 -10 0 -5 7 -10 15 -10 8 0 15 -4
15 -10 0 -5 -8 -7 -17 -4 -17 5 -17 5 0 -6 9 -6 15 -15 13 -19 -3 -4 1 -8 9
-8 8 0 11 5 8 10 -4 6 -1 7 6 3 7 -5 10 -14 7 -21 -2 -7 5 -21 16 -32 12 -10
18 -12 14 -5 -4 6 -2 12 3 12 6 0 11 -10 11 -22 0 -17 3 -19 9 -10 6 10 10 9
14 -7 3 -12 13 -21 22 -21 12 0 16 -6 12 -20 -4 -17 -2 -18 15 -9 18 10 19 9
7 -13 -11 -21 -11 -22 4 -9 15 12 17 11 17 -4 0 -11 5 -15 14 -12 10 4 13 1 9
-8 -3 -8 2 -18 11 -21 9 -3 13 -11 9 -18 -4 -6 2 -4 12 4 11 9 16 10 11 3 -4
-7 -2 -13 3 -13 6 0 10 -6 8 -12 -1 -7 4 -12 12 -10 8 2 11 -3 8 -12 -4 -10
-1 -13 7 -10 8 3 17 0 22 -7 4 -7 3 -10 -3 -6 -5 3 -10 0 -10 -7 0 -8 6 -12
12 -9 7 2 15 -5 18 -16 4 -15 10 -19 23 -14 13 5 15 3 9 -7 -6 -10 -4 -12 9
-7 9 4 14 3 11 -2 -3 -5 -1 -13 5 -16 13 -8 42 14 34 26 -3 5 0 9 7 9 7 0 10
3 6 6 -12 12 17 33 31 22 9 -8 11 -7 5 7 -5 15 -3 17 10 12 15 -6 16 -3 7 13
-9 16 -8 18 6 13 20 -7 38 18 21 30 -7 5 -4 6 9 2 24 -6 50 18 38 36 -5 8 -3
9 6 4 10 -6 12 -4 6 10 -5 14 -4 16 7 7 16 -14 28 -6 20 14 -4 10 0 12 13 7
12 -4 15 -3 10 5 -4 7 -1 12 9 12 11 0 15 5 11 16 -4 10 -2 13 6 8 8 -5 9 -2
5 10 -4 9 -3 14 2 11 5 -3 13 0 16 6 4 5 14 8 22 4 14 -5 14 -3 2 12 -9 11
-10 14 -1 9 7 -4 12 -2 12 4 0 6 5 8 10 5 6 -3 10 -2 10 4 0 5 -6 12 -12 15
-7 3 -2 3 11 0 16 -4 21 -3 17 5 -7 10 7 16 28 12 5 -1 3 6 -5 15 -12 15 -12
17 0 9 11 -6 13 -4 8 8 -7 19 8 32 19 16 5 -8 3 -9 -6 -4 -9 5 -11 4 -6 -4 9
-14 26 -5 26 15 0 8 7 14 16 14 8 0 12 5 9 10 -3 6 -1 10 5 10 6 0 8 4 5 10
-4 6 1 7 11 3 11 -4 15 -2 11 4 -4 6 1 13 11 15 10 3 19 12 19 21 0 9 -4 14
-9 11 -5 -3 -5 -10 -2 -16 5 -7 2 -8 -5 -3 -9 5 -6 14 10 32 l23 24 -260 260
c-143 142 -258 261 -256 264 3 3 3 5 0 5 -3 0 -121 -115 -262 -256z m-211
-342 c-3 -3 -11 0 -18 7 -9 10 -8 11 6 5 10 -3 15 -9 12 -12z m145 -152 c0 -5
-2 -10 -4 -10 -3 0 -8 5 -11 10 -3 6 -1 10 4 10 6 0 11 -4 11 -10z m277 -282
c-3 -8 -6 -5 -6 6 -1 11 2 17 5 13 3 -3 4 -12 1 -19z m73 -22 c0 -3 -4 -8 -10
-11 -5 -3 -10 -1 -10 4 0 6 5 11 10 11 6 0 10 -2 10 -4z"/>
<path d="M3507 7673 c-141 -141 -257 -261 -257 -265 0 -4 4 -8 8 -8 4 0 8 -8
9 -17 3 -44 8 -61 15 -57 4 3 8 0 8 -7 0 -7 3 -9 6 -6 4 4 1 15 -6 24 -8 10
-2 7 12 -7 17 -17 22 -28 14 -33 -6 -5 -1 -7 12 -4 20 5 22 3 10 -11 -7 -9 -8
-13 -2 -9 6 3 17 -4 24 -18 8 -15 19 -22 32 -20 17 4 18 2 6 -12 -9 -12 -9
-15 0 -9 7 4 12 2 12 -4 0 -6 5 -8 13 -4 9 6 9 4 -1 -8 -12 -14 -10 -16 10
-11 18 4 20 3 8 -6 -13 -9 -12 -11 4 -11 12 0 16 -5 13 -14 -4 -10 0 -14 14
-11 17 3 24 -10 20 -37 0 -4 6 -5 14 -2 7 3 22 1 32 -6 16 -9 15 -10 -6 -4
-21 5 -22 4 -10 -9 8 -8 21 -13 30 -12 9 2 16 -3 17 -11 1 -8 3 -20 4 -28 1
-8 9 -12 22 -9 18 4 19 3 6 -7 -12 -10 -11 -11 7 -7 20 4 21 3 12 -15 -8 -14
-8 -18 0 -14 5 4 17 -4 26 -18 11 -16 22 -23 32 -19 12 5 15 2 10 -9 -8 -22
25 -52 40 -37 9 9 11 5 9 -13 -2 -19 2 -24 21 -26 12 -1 23 3 23 9 0 5 6 7 13
3 8 -6 8 -3 -1 9 -12 14 -11 16 8 12 17 -3 20 -1 11 9 -9 11 -8 14 6 12 10 0
17 5 15 13 -2 9 3 11 14 7 14 -5 15 -4 4 9 -11 13 -10 14 4 9 10 -4 16 -1 16
9 0 9 5 19 12 23 6 4 8 3 5 -3 -3 -5 0 -10 8 -10 10 0 11 5 4 18 -8 15 -6 17
7 12 13 -5 15 -3 9 7 -6 10 -4 12 10 6 16 -6 16 -4 4 11 -9 11 -10 14 -1 9 7
-4 19 -1 27 8 18 17 20 30 3 20 -7 -4 -8 -3 -4 5 6 9 11 9 21 1 11 -10 13 -8
10 9 -3 18 -1 20 15 11 18 -10 19 -8 10 16 -10 25 -9 26 7 13 15 -12 16 -12
10 5 -7 17 -5 17 10 5 10 -7 15 -10 11 -5 -8 10 13 34 27 31 5 -1 7 0 3 2 -14
8 -8 25 7 20 8 -4 17 -1 21 5 5 7 2 8 -6 3 -8 -5 -11 -3 -8 6 3 8 11 14 19 14
8 0 13 8 13 18 -2 14 1 15 13 6 8 -7 13 -8 12 -3 -4 24 3 34 24 34 18 0 19 2
7 10 -13 8 -12 10 3 10 9 0 16 5 15 11 -2 6 3 14 11 17 8 3 11 0 7 -7 -5 -7
-1 -9 9 -4 9 3 13 9 8 12 -12 9 -15 34 -3 26 5 -3 10 0 10 7 0 10 3 9 11 -2 9
-12 10 -11 6 8 -4 15 0 22 10 22 8 0 11 -5 7 -12 -5 -7 -3 -8 6 -3 10 6 10 10
-3 19 -10 8 -12 17 -7 27 6 10 -58 80 -249 271 l-257 257 -257 -256z m-122
-421 c-3 -3 -11 0 -18 7 -9 10 -8 11 6 5 10 -3 15 -9 12 -12z m280 -280 c-3
-3 -11 0 -18 7 -9 10 -8 11 6 5 10 -3 15 -9 12 -12z m49 -58 c5 -14 4 -15 -9
-4 -17 14 -19 20 -6 20 5 0 12 -7 15 -16z"/>
<path d="M4717 7674 c-155 -155 -254 -261 -250 -268 4 -6 6 -19 4 -30 -1 -10
2 -15 7 -12 6 3 13 -3 17 -14 3 -11 12 -19 18 -17 7 1 11 -8 11 -21 -1 -18 1
-20 12 -11 11 9 14 8 14 -5 0 -10 4 -15 9 -11 5 3 12 1 15 -4 4 -5 1 -13 -5
-17 -8 -5 -9 -3 -4 6 5 9 4 11 -4 6 -16 -10 -4 -26 14 -19 8 3 15 0 15 -7 0
-6 5 -8 13 -4 7 5 6 0 -3 -11 -14 -17 -14 -18 8 -6 22 12 23 11 13 -8 -10 -17
-8 -19 10 -16 17 3 19 1 9 -10 -9 -11 -6 -13 14 -11 17 2 23 -1 19 -10 -3 -8
-10 -14 -16 -14 -6 0 -7 -3 -4 -6 4 -4 14 -1 24 7 11 9 14 10 9 2 -4 -8 -2
-13 4 -13 7 0 9 -7 6 -16 -5 -14 -4 -15 9 -4 13 11 14 10 10 -3 -4 -8 -1 -18
6 -23 8 -5 10 -3 5 7 -4 8 0 5 9 -6 9 -11 19 -19 23 -18 4 1 6 -6 6 -17 -1
-17 1 -18 14 -8 13 11 15 10 10 -10 -6 -20 -4 -21 8 -11 12 10 15 10 12 -2 -2
-8 4 -13 15 -13 13 2 15 -1 7 -11 -8 -10 -8 -15 1 -21 7 -4 9 -3 6 3 -3 5 0
10 7 10 8 0 11 -8 9 -18 -3 -9 1 -20 8 -24 8 -6 10 -4 4 5 -6 9 -4 11 4 6 7
-5 10 -15 6 -23 -4 -13 -3 -14 9 -4 11 9 16 9 22 0 4 -8 3 -9 -4 -5 -7 4 -12
2 -12 -5 0 -7 8 -9 21 -6 12 3 18 3 15 0 -3 -4 0 -13 7 -22 11 -14 10 -15 -8
-1 -19 14 -19 14 -6 -2 7 -10 20 -18 27 -18 7 0 11 -6 9 -12 -3 -8 4 -13 19
-13 20 0 22 3 13 15 -6 8 -8 12 -3 8 13 -11 68 21 62 37 -2 7 2 16 10 19 10 4
13 2 8 -7 -4 -6 2 -3 13 8 21 20 21 41 1 29 -7 -4 -8 -2 -4 4 4 6 14 8 23 5
11 -4 14 -3 9 5 -5 8 -2 10 8 6 11 -4 16 0 16 11 0 10 5 13 12 9 8 -5 9 -2 5
10 -4 10 -3 15 3 11 6 -3 10 0 10 8 0 17 47 40 63 30 7 -3 3 4 -7 16 -19 21
-19 21 -1 15 12 -5 16 -4 11 4 -4 8 -2 10 7 6 9 -3 16 3 20 15 3 12 12 21 21
21 19 0 21 16 4 23 -7 3 2 4 19 3 18 -2 30 0 28 5 -8 13 17 59 32 59 8 0 11 4
8 10 -4 6 1 7 11 3 12 -4 15 -3 10 5 -4 7 -1 12 9 12 11 0 15 5 11 16 -4 10
-2 13 6 8 8 -5 9 -2 4 11 -5 14 -4 16 8 6 11 -9 15 -8 19 3 3 8 1 17 -6 20 -7
3 -1 3 12 0 16 -4 21 -3 17 5 -4 6 0 11 11 12 11 0 13 3 5 6 -9 3 -7 9 6 21
10 10 13 13 6 9 -7 -4 -15 -3 -19 3 -3 5 -1 10 4 10 6 0 11 4 11 9 0 8 -506
521 -513 521 -2 0 -118 -115 -260 -256z"/>
<path d="M5463 7572 c10 -10 14 -22 10 -27 -5 -4 -2 -5 5 -1 11 6 10 12 -4 27
-9 10 -19 19 -22 19 -3 0 2 -8 11 -18z"/>
<path d="M4138 7039 l-227 -229 20 -38 c12 -20 15 -31 8 -24 -7 6 -17 12 -22
12 -5 0 -2 -7 7 -15 8 -8 20 -15 26 -15 14 0 41 -26 34 -32 -2 -3 5 -13 16
-23 20 -18 21 -18 14 1 -5 15 -4 16 5 4 6 -8 11 -21 11 -28 0 -7 7 -20 15 -28
18 -18 20 -4 3 16 -11 12 -10 12 5 0 10 -7 16 -21 14 -31 -3 -12 0 -16 9 -12
8 3 18 -5 25 -20 8 -17 18 -24 31 -22 16 4 18 2 8 -10 -10 -12 -8 -15 11 -15
19 0 21 -2 9 -10 -12 -8 -12 -10 5 -10 11 0 27 -5 35 -11 13 -10 13 -10 -1 -6
-9 3 -16 -1 -16 -8 0 -8 3 -14 6 -13 22 2 32 -4 28 -16 -4 -10 -1 -13 9 -9 7
3 21 2 30 -1 13 -5 14 -9 5 -20 -9 -11 -9 -16 0 -22 8 -5 9 -3 4 6 -6 9 -4 11
4 6 7 -5 10 -14 8 -20 -3 -7 1 -13 8 -13 7 0 11 7 8 16 -3 12 -2 12 7 -2 6 -9
9 -21 6 -25 -3 -5 4 -16 15 -25 10 -9 19 -13 19 -7 0 5 -8 14 -17 19 -10 6
-13 11 -7 11 16 0 34 -22 34 -42 0 -10 5 -18 11 -18 6 0 9 6 6 13 -3 9 3 13
17 13 13 -1 20 4 18 13 -3 12 -1 12 13 1 9 -7 15 -9 14 -4 -1 5 -1 18 0 29 1
17 3 18 11 5 8 -13 10 -12 10 4 0 12 5 16 14 13 11 -4 13 -1 9 10 -5 13 -2 15
12 10 14 -6 16 -5 6 7 -9 11 -8 15 4 20 11 4 14 2 9 -7 -4 -6 2 -3 13 8 11 11
18 24 15 29 -3 5 3 6 13 2 14 -5 16 -4 7 7 -16 19 -3 30 16 14 11 -8 14 -8 9
0 -11 17 3 43 19 36 9 -3 14 2 14 15 0 13 11 25 30 34 17 7 28 18 26 25 -5 13
21 26 35 18 5 -4 6 2 2 11 -5 13 -3 15 7 9 10 -6 12 -4 7 8 -4 11 1 21 15 28
16 9 19 8 13 -3 -5 -7 1 -4 12 7 11 11 18 24 15 29 -3 5 2 7 11 3 9 -3 19 -1
23 5 4 6 3 8 -4 4 -6 -3 -13 -2 -17 4 -3 5 6 12 20 16 14 3 25 10 25 16 0 5
-4 7 -9 4 -11 -7 -9 13 3 32 5 9 -65 85 -223 242 -126 127 -231 230 -233 229
-2 -1 -105 -104 -230 -230z"/>
<path d="M5360 7061 c-248 -251 -244 -246 -234 -263 5 -7 9 -19 10 -26 5 -28
14 -43 24 -37 8 5 14 -14 12 -36 -1 -4 8 -5 18 -2 11 3 20 1 20 -4 0 -6 12
-22 26 -36 14 -14 23 -30 20 -35 -3 -5 1 -9 9 -9 8 0 11 5 8 10 -3 6 -1 7 5 3
7 -4 12 -14 12 -22 0 -9 -5 -12 -12 -8 -7 4 -8 3 -4 -4 5 -9 13 -9 27 -2 10 6
20 8 20 5 1 -3 2 -9 3 -14 0 -5 11 -21 23 -35 15 -17 18 -27 10 -30 -7 -4 2
-4 18 -1 22 4 26 3 15 -5 -13 -9 -7 -14 13 -11 6 1 11 -21 9 -40 -1 -4 7 -5
16 -2 12 3 23 -5 32 -21 7 -14 17 -26 22 -26 5 0 6 -4 3 -10 -3 -5 -1 -11 4
-11 37 -5 51 -16 44 -36 -4 -10 -2 -14 4 -10 6 4 13 2 15 -5 3 -7 16 -13 30
-13 18 -1 25 2 21 12 -3 7 2 13 10 13 9 0 19 5 23 12 4 7 3 8 -4 4 -7 -4 -12
-2 -12 3 0 6 7 11 15 11 9 0 18 7 21 15 4 8 13 15 21 15 8 0 11 5 7 12 -5 8
-1 9 12 4 14 -5 16 -4 8 4 -9 9 -3 20 23 43 20 18 46 42 58 55 12 12 27 22 33
22 6 0 14 5 18 12 4 7 3 8 -4 4 -7 -4 -12 -3 -12 2 0 16 33 24 42 10 11 -18
10 0 -2 22 -8 16 -6 18 15 15 21 -2 23 0 13 12 -9 11 -8 13 3 11 8 -2 13 4 13
14 -1 10 1 17 5 16 28 -3 43 4 37 18 -5 13 -2 15 14 11 18 -5 19 -3 9 9 -7 8
-8 14 -3 13 21 -4 34 2 34 16 0 8 5 15 11 15 6 0 9 7 6 15 -4 8 -2 17 3 20 6
4 10 13 10 20 0 14 -445 466 -458 464 -4 0 -99 -94 -212 -208z"/>
<path d="M6581 7038 c-141 -141 -227 -234 -220 -239 8 -5 7 -8 -2 -12 -12 -5
-12 -6 0 -6 11 -1 11 -4 1 -16 -9 -11 -9 -15 -1 -15 7 0 10 -4 6 -9 -3 -6 3
-8 14 -6 14 2 18 -1 14 -14 -3 -11 2 -21 13 -25 15 -6 15 -4 3 11 -13 16 -12
17 4 4 9 -7 17 -22 17 -32 0 -13 5 -17 17 -12 12 5 15 2 10 -10 -5 -12 0 -18
18 -23 13 -3 30 -13 37 -22 12 -15 11 -16 -7 -3 -19 13 13 -16 73 -67 22 -18
23 -21 7 -17 -16 5 -16 3 3 -6 12 -7 22 -16 22 -21 0 -4 6 -8 14 -8 8 0 17 -7
20 -16 3 -8 11 -12 17 -8 8 5 8 1 0 -14 -7 -14 -8 -23 -1 -27 10 -6 14 1 11
20 -1 6 5 2 12 -7 8 -10 18 -14 23 -10 4 4 2 -2 -6 -13 -8 -11 -10 -17 -6 -13
5 4 15 0 23 -10 8 -9 11 -11 7 -3 -5 10 -3 12 5 7 7 -5 10 -14 7 -22 -3 -9 0
-11 11 -7 12 5 14 3 8 -7 -6 -10 -4 -12 8 -7 10 4 14 2 11 -7 -6 -16 32 -51
41 -37 3 6 3 17 -1 24 -6 9 -4 9 8 -1 13 -10 18 -10 24 -1 5 8 3 10 -7 4 -11
-6 -11 -5 -3 4 6 7 20 14 30 15 12 2 18 10 16 21 -2 10 1 14 7 10 6 -3 11 1
11 9 0 9 5 16 11 16 5 0 7 5 4 10 -3 6 3 10 15 10 14 0 20 5 18 18 -2 12 3 17
18 16 16 0 20 4 16 15 -4 11 -1 13 13 8 16 -7 16 -5 4 9 -13 16 -11 17 16 10
17 -3 25 -3 20 1 -9 7 -11 16 -6 39 0 4 7 1 14 -5 11 -8 13 -6 13 12 -1 16 4
21 17 19 12 -2 17 4 17 18 0 12 5 18 10 15 6 -3 10 -1 10 4 0 6 7 11 16 11 8
0 12 5 9 11 -4 6 0 9 11 7 10 -2 19 3 20 10 1 6 2 20 3 30 1 15 3 15 11 2 9
-13 14 -7 11 13 0 4 6 7 15 7 9 0 12 5 8 12 -5 8 -2 9 11 4 14 -5 16 -4 7 7
-15 18 -3 30 15 15 11 -9 12 -7 7 7 -6 14 -4 16 7 10 8 -4 11 -5 7 0 -4 4 -2
15 5 24 11 14 10 14 -5 2 -20 -15 -25 -2 -6 17 9 9 -41 65 -219 242 l-230 230
-232 -232z m573 -384 c3 -8 2 -12 -4 -9 -6 3 -10 10 -10 16 0 14 7 11 14 -7z
m-279 -284 c3 -6 -1 -7 -9 -4 -18 7 -21 14 -7 14 6 0 13 -4 16 -10z m-74 -47
c13 -16 12 -17 -3 -4 -10 7 -18 15 -18 17 0 8 8 3 21 -13z"/>
<path d="M3000 7115 c-73 -74 -134 -135 -135 -135 -1 0 -43 -42 -93 -92 -68
-70 -88 -96 -80 -105 6 -7 7 -13 3 -13 -5 0 0 -10 11 -22 13 -16 14 -19 2 -10
-13 11 -18 11 -24 0 -4 -7 -4 -10 1 -6 12 11 36 -12 28 -26 -4 -6 0 -5 9 2 13
10 18 10 24 1 5 -8 3 -10 -7 -5 -8 4 -5 1 5 -8 10 -8 22 -13 27 -11 4 3 5 -5
1 -17 -3 -14 -2 -19 6 -14 7 4 12 2 12 -4 0 -6 5 -8 13 -4 8 5 7 2 -2 -9 -12
-15 -12 -17 4 -11 13 5 16 4 11 -4 -6 -11 11 -17 36 -13 4 0 4 -7 1 -16 -5
-12 -2 -15 9 -11 10 4 15 1 14 -10 0 -10 5 -16 14 -14 10 1 9 -3 -5 -14 -20
-16 -19 -16 4 -9 20 6 23 4 17 -10 -5 -15 -4 -16 9 -5 15 12 21 4 16 -24 -1
-5 5 -6 13 -3 20 8 28 -3 14 -20 -9 -11 -7 -12 7 -7 14 6 16 4 10 -6 -6 -10
-3 -12 13 -8 12 3 21 3 20 -1 -2 -19 3 -31 12 -26 6 3 10 -3 10 -13 0 -26 23
-44 46 -36 11 3 15 2 9 -3 -5 -4 -11 -14 -13 -22 -3 -12 0 -12 12 -2 13 11 17
10 22 -3 3 -9 11 -13 17 -9 6 3 7 1 3 -5 -4 -6 -14 -8 -24 -5 -21 8 -16 2 22
-21 24 -15 28 -16 23 -3 -4 12 -1 15 14 12 14 -3 19 0 16 9 -4 10 1 12 16 9
16 -3 18 -2 9 5 -11 7 -8 11 10 17 12 4 27 7 31 6 5 -1 6 3 2 9 -4 7 -13 7
-28 -1 -21 -10 -21 -10 -2 6 11 8 25 13 32 11 7 -3 10 1 6 10 -3 10 5 18 26
25 17 6 31 16 31 21 0 6 -6 5 -15 -2 -9 -7 -18 -11 -20 -8 -3 3 6 11 20 18 16
9 24 19 20 28 -4 11 -2 12 7 4 9 -7 19 -6 33 5 19 15 19 15 -5 9 -23 -5 -23
-5 2 7 23 10 26 16 15 26 -10 10 -9 11 4 6 10 -4 20 -1 24 4 3 6 10 9 15 6 4
-3 7 3 6 13 0 11 6 16 17 16 15 -2 16 1 5 14 -8 9 -8 13 -2 9 7 -4 15 0 18 9
3 9 12 14 20 11 10 -4 12 1 9 16 -3 16 -2 18 5 9 7 -11 11 -9 15 8 4 15 11 21
21 17 9 -4 13 -1 10 6 -2 7 3 21 11 32 16 19 16 19 6 -2 -8 -15 -8 -24 -1 -28
6 -4 10 -3 9 2 -4 20 24 73 39 74 10 0 12 3 6 5 -7 3 -10 13 -7 24 4 14 -50
74 -221 244 -124 124 -230 226 -234 226 -4 0 -68 -61 -142 -135z"/>
<path d="M5116 6782 c-2 -4 -1 -14 4 -22 7 -11 9 -9 7 8 -1 24 -3 26 -11 14z"/>
<path d="M3585 6729 c-4 -6 -5 -12 -2 -15 2 -3 7 2 10 11 7 17 1 20 -8 4z"/>
<path d="M3953 6705 c0 -8 4 -12 9 -9 5 3 6 10 3 15 -9 13 -12 11 -12 -6z"/>
<path d="M4760 6415 c-118 -118 -209 -215 -202 -215 6 0 12 -5 12 -11 0 -5 -4
-8 -9 -5 -5 4 -7 -3 -4 -14 3 -11 12 -20 19 -20 8 0 14 -5 14 -11 0 -5 -5 -7
-12 -3 -7 4 -8 3 -4 -5 6 -9 11 -9 22 0 9 7 14 8 13 3 -4 -22 2 -33 22 -39 15
-5 19 -13 16 -27 -4 -14 -2 -17 7 -9 9 7 16 5 26 -9 7 -10 18 -16 24 -13 6 4
5 -1 -3 -10 -12 -15 -11 -17 8 -17 12 0 20 -4 16 -9 -3 -5 6 -18 20 -29 18
-14 22 -22 13 -26 -7 -3 -3 -3 10 0 16 4 22 1 22 -11 0 -9 5 -13 10 -10 6 3
10 1 10 -5 0 -6 4 -8 10 -5 6 3 7 -1 4 -9 -4 -11 0 -16 10 -16 10 0 16 -8 16
-21 0 -19 2 -20 18 -8 9 7 14 9 10 5 -4 -5 0 -15 10 -23 11 -10 12 -12 2 -8
-8 4 -4 -3 9 -14 12 -12 28 -18 34 -14 5 3 7 1 3 -5 -3 -5 -1 -12 4 -14 6 -2
12 -13 12 -24 1 -11 8 -21 15 -21 10 0 10 4 1 14 -9 11 -8 13 3 11 8 -2 17 -7
21 -13 4 -6 8 -2 8 8 0 9 5 17 11 17 5 0 8 4 5 9 -4 5 4 7 16 4 19 -4 20 -3 8
6 -14 10 -7 16 14 12 5 -1 6 5 3 13 -7 19 9 31 19 15 5 -8 3 -9 -6 -4 -9 5
-11 4 -6 -4 4 -6 12 -9 17 -5 5 3 7 10 4 15 -4 5 2 9 12 9 13 0 15 2 5 9 -10
6 -10 10 2 20 8 7 20 10 26 6 6 -4 10 -3 9 2 -1 4 -1 17 0 28 1 17 3 18 11 5
8 -13 10 -12 10 3 0 15 11 21 32 18 4 0 5 6 2 14 -4 11 1 15 17 15 17 0 20 3
11 9 -10 6 -9 11 4 22 10 8 15 9 11 2 -4 -6 -3 -14 2 -17 5 -4 8 5 6 19 -2 22
0 23 14 13 9 -7 13 -9 9 -4 -4 5 1 16 10 25 10 9 11 12 3 6 -10 -6 -8 0 4 16
13 17 23 23 27 16 4 -6 4 -15 1 -21 -3 -5 -1 -6 5 -2 6 4 9 13 5 21 -3 10 1
15 13 16 12 0 14 3 6 6 -10 4 -10 8 -1 19 6 8 17 14 23 14 6 0 4 -5 -4 -11
-13 -9 -13 -10 0 -6 8 2 16 9 16 15 1 7 2 17 3 23 0 5 5 8 10 5 5 -3 12 1 15
10 3 8 2 12 -3 9 -5 -3 -12 -1 -16 5 -3 5 -1 10 4 10 6 0 11 6 11 13 0 12
-400 419 -418 425 -4 1 -104 -95 -222 -213z"/>
<path d="M5990 6405 c-161 -162 -211 -218 -202 -227 8 -8 8 -17 0 -31 -9 -18
-8 -19 18 -14 16 4 23 4 17 1 -7 -3 -13 -13 -13 -22 0 -15 2 -15 10 -2 8 13
10 12 10 -2 0 -10 7 -18 15 -18 9 0 18 -7 22 -16 13 -34 75 -92 92 -86 13 5
14 3 4 -9 -10 -12 -8 -18 7 -32 23 -20 34 -22 24 -5 -4 7 -3 8 4 4 7 -4 12
-14 12 -22 0 -8 5 -14 11 -14 5 0 7 -4 4 -10 -3 -5 3 -10 15 -10 12 0 20 -5
18 -12 -2 -6 4 -20 14 -30 26 -26 35 -22 12 5 l-19 22 23 -19 c12 -11 22 -23
22 -28 0 -12 47 -58 59 -58 5 0 12 -8 15 -18 4 -10 14 -19 23 -19 8 0 18 9 21
19 4 18 17 24 25 11 2 -5 2 -2 1 5 -2 6 1 12 7 12 6 0 7 5 4 10 -3 6 1 10 10
10 10 0 13 5 9 12 -5 7 0 9 14 6 12 -3 21 -3 20 1 -3 16 15 40 26 34 6 -4 6 0
-2 9 -10 13 -10 18 -1 24 8 4 9 3 5 -4 -10 -16 2 -15 19 2 8 7 11 17 7 21 -4
5 1 5 10 2 10 -3 20 -1 24 5 5 7 2 8 -7 4 -8 -4 -6 -1 3 7 10 8 14 18 10 22
-4 5 1 5 11 2 14 -5 20 -2 24 13 3 11 10 17 17 13 6 -4 5 1 -3 10 -12 15 -12
17 3 11 10 -4 18 0 22 10 3 9 11 13 18 9 6 -4 5 0 -2 9 -12 14 -10 16 10 11
16 -3 19 -2 10 5 -11 7 -9 11 8 15 15 4 21 11 17 21 -4 11 -1 13 10 9 12 -5
14 -3 8 8 -8 12 -6 12 8 1 14 -12 16 -11 12 8 -3 16 0 20 10 16 8 -3 17 0 21
6 5 7 2 8 -6 3 -8 -5 -11 -3 -8 6 3 8 14 13 24 11 18 -2 18 -2 1 9 -15 9 -16
13 -6 25 11 13 -22 50 -202 230 l-214 214 -215 -215z m325 -565 c-3 -5 -12
-10 -18 -10 -7 0 -6 4 3 10 19 12 23 12 15 0z"/>
<path d="M7201 6410 c-203 -206 -238 -246 -206 -234 17 7 18 -15 1 -27 -5 -4
1 -10 13 -14 11 -3 21 -13 21 -21 0 -8 5 -12 10 -9 6 3 10 1 10 -5 0 -6 5 -8
10 -5 6 3 10 -2 10 -13 0 -10 12 -29 28 -43 l27 -24 -25 29 c-24 27 -24 28 -2
15 12 -8 25 -22 28 -32 3 -9 10 -15 15 -11 5 3 9 2 8 -3 -3 -20 2 -34 10 -28
10 6 51 -32 51 -47 0 -5 5 -6 11 -2 8 5 8 1 0 -13 -9 -18 -7 -20 14 -17 14 1
23 -1 21 -4 -5 -11 41 -52 50 -44 4 4 4 -1 1 -10 -4 -10 -2 -18 4 -18 14 0 59
-47 52 -54 -4 -3 4 -6 17 -6 20 0 21 -2 9 -17 -13 -15 -12 -15 8 -4 18 9 22 9
17 -2 -3 -8 2 -14 10 -14 8 0 13 4 10 8 -6 10 18 49 30 49 6 0 5 -5 -2 -12
-20 -20 -14 -30 6 -10 11 9 18 19 16 22 -2 6 23 31 31 30 3 0 6 3 7 8 4 15 23
30 33 24 6 -3 4 2 -4 11 -8 10 -11 20 -7 24 3 3 6 1 6 -5 0 -7 5 -12 11 -12 6
0 9 6 6 14 -4 10 0 13 14 11 11 -2 17 0 14 6 -4 5 1 19 10 31 l17 23 -7 -23
c-7 -23 -7 -24 12 -5 12 12 15 21 9 25 -7 5 -4 8 7 8 11 0 15 4 11 12 -5 8 -2
9 11 4 16 -6 16 -4 4 11 -8 9 -9 14 -2 10 7 -4 14 1 18 13 3 11 11 20 18 20 8
0 8 -3 -1 -12 -20 -20 -14 -30 6 -10 10 9 17 19 16 21 -6 7 22 28 31 23 6 -3
3 3 -5 13 -8 10 -10 16 -4 12 7 -4 19 4 29 19 10 16 22 23 32 20 13 -6 14 -4
3 9 -7 9 -9 15 -4 14 22 -4 34 2 34 19 0 14 -2 15 -10 2 -8 -13 -10 -13 -10 2
0 9 8 18 17 20 12 2 -47 67 -198 218 -119 118 -220 215 -225 216 -5 0 -101
-93 -213 -206z"/>
<path d="M3541 6396 c-128 -128 -209 -216 -202 -220 6 -4 11 -19 11 -33 0 -17
4 -23 14 -20 10 4 12 0 8 -16 -5 -20 -4 -21 13 -7 11 9 16 10 11 3 -4 -8 -2
-13 5 -13 7 0 9 -3 6 -7 -4 -3 3 -11 16 -17 12 -7 22 -19 22 -28 0 -9 4 -20 9
-25 5 -4 6 -3 2 5 -4 6 -2 12 3 12 6 0 11 -5 11 -11 0 -5 4 -8 9 -5 5 3 8 -2
7 -12 0 -9 8 -21 20 -26 11 -5 25 -18 30 -29 5 -11 13 -18 18 -16 9 4 31 -39
27 -54 -1 -5 3 -6 9 -2 8 5 7 12 -2 23 -12 15 -11 16 5 3 10 -8 16 -20 13 -27
-3 -9 0 -11 11 -7 12 5 15 2 10 -10 -4 -11 -2 -14 7 -11 8 3 17 0 22 -7 5 -8
3 -10 -7 -5 -8 4 -7 2 2 -6 9 -7 18 -17 20 -23 2 -5 12 -9 22 -9 14 1 15 -1 5
-14 -11 -13 -10 -15 10 -10 20 6 22 4 10 -10 -11 -14 -10 -15 5 -9 10 4 16 3
12 -2 -6 -10 11 -24 32 -27 10 -2 10 3 1 19 -10 20 -10 21 5 8 12 -9 17 -10
17 -2 0 7 5 9 12 5 7 -5 8 -3 4 5 -9 14 21 51 41 51 7 0 16 7 19 15 4 8 11 12
18 8 6 -4 5 1 -3 10 -12 15 -12 17 3 11 12 -5 19 0 23 15 5 21 18 28 26 14 2
-5 2 -2 1 5 -2 6 1 12 7 12 6 0 8 3 5 8 -2 4 3 16 11 27 12 16 14 16 10 3 -3
-10 -1 -20 5 -24 7 -4 8 -3 4 4 -4 7 -2 12 4 12 6 0 8 5 5 10 -3 6 -1 10 5 10
6 0 9 4 6 9 -3 5 3 11 14 14 11 3 20 13 20 22 0 11 5 15 16 11 8 -3 13 -2 9 3
-3 5 1 16 9 24 8 8 12 18 8 21 -3 4 1 4 10 1 15 -6 36 16 36 38 0 5 4 12 8 15
4 4 4 1 0 -5 -4 -8 -1 -13 8 -13 9 0 13 6 10 14 -7 17 16 33 25 17 4 -6 7 10
6 34 0 45 -1 45 -205 250 -113 113 -207 205 -210 205 -3 0 -101 -96 -219 -214z"/>
<path d="M2317 6390 c-190 -191 -207 -211 -193 -226 21 -20 20 -25 -1 -18 -13
4 -11 0 5 -12 12 -9 22 -22 22 -30 0 -7 5 -16 12 -20 6 -4 8 -3 4 4 -3 6 -1
14 5 18 7 4 9 3 6 -3 -7 -11 36 -57 45 -48 2 3 5 -2 5 -10 0 -12 -5 -11 -23 6
-16 15 -24 17 -29 8 -5 -7 -4 -10 2 -6 6 4 18 -2 28 -13 10 -11 24 -16 33 -13
9 4 13 2 9 -4 -3 -5 5 -16 18 -23 21 -11 23 -16 12 -29 -9 -12 -9 -13 1 -7 7
4 12 2 12 -6 0 -10 3 -9 11 2 9 12 10 11 6 -8 -3 -12 -1 -20 4 -17 4 3 18 -4
29 -15 11 -11 26 -18 32 -14 6 4 8 3 5 -3 -8 -13 27 -45 38 -36 5 5 4 1 -2 -7
-8 -11 -9 -20 -1 -30 8 -12 9 -11 4 5 -6 19 -5 19 8 2 8 -10 18 -19 23 -20 4
-1 6 -8 5 -16 -2 -8 1 -10 9 -5 9 5 10 2 5 -11 -5 -15 -4 -16 9 -5 13 11 16
11 13 -1 -2 -8 3 -13 10 -11 8 1 11 -2 7 -8 -5 -9 15 -15 38 -11 5 1 6 -9 3
-21 l-6 -23 11 23 c7 12 16 22 21 22 5 0 7 4 4 9 -8 12 23 23 37 14 7 -4 5 2
-3 12 -9 11 -10 16 -2 11 7 -4 12 -1 12 8 0 9 5 16 11 16 5 0 7 -5 3 -12 -4
-7 -3 -8 4 -4 7 4 12 16 12 28 0 14 5 18 16 14 12 -4 15 -2 11 9 -4 8 -1 17 5
21 6 4 8 3 4 -4 -3 -6 -2 -14 4 -17 6 -4 10 -3 9 2 -4 21 2 43 12 43 5 0 7 -5
3 -12 -4 -7 -3 -8 4 -4 7 4 12 14 12 22 0 8 11 19 25 24 14 5 25 13 24 17 -4
25 3 35 21 30 11 -3 17 -1 14 4 -3 5 1 12 10 15 8 3 12 12 10 19 -3 7 0 16 7
21 8 4 10 3 5 -4 -4 -7 -2 -12 3 -12 6 0 11 9 11 20 0 17 14 25 41 22 3 -1 5
9 4 22 -3 19 1 23 18 18 17 -4 19 -2 14 17 -5 19 -3 20 11 9 12 -10 14 -10 8
0 -4 7 -2 12 6 12 10 0 11 2 0 8 -7 5 -10 16 -7 24 5 12 -53 76 -200 222 -113
113 -211 206 -218 206 -7 -1 -106 -95 -220 -210z"/>
<path d="M5305 6579 c-4 -6 -5 -12 -2 -15 2 -3 7 2 10 11 7 17 1 20 -8 4z"/>
<path d="M4629 6563 c-13 -16 -12 -17 4 -4 16 13 21 21 13 21 -2 0 -10 -8 -17
-17z"/>
<path d="M5750 6481 c0 -6 4 -13 10 -16 6 -3 7 1 4 9 -7 18 -14 21 -14 7z"/>
<path d="M5719 6453 c-13 -16 -12 -17 4 -4 9 7 17 15 17 17 0 8 -8 3 -21 -13z"/>
<path d="M4238 6433 c7 -3 16 -2 19 1 4 3 -2 6 -13 5 -11 0 -14 -3 -6 -6z"/>
<path d="M5513 6365 c0 -8 4 -12 9 -9 5 3 6 10 3 15 -9 13 -12 11 -12 -6z"/>
<path d="M3423 6045 c0 -8 4 -12 9 -9 5 3 6 10 3 15 -9 13 -12 11 -12 -6z"/>
<path d="M2250 5990 c0 -5 5 -10 11 -10 5 0 7 5 4 10 -3 6 -8 10 -11 10 -2 0
-4 -4 -4 -10z"/>
<path d="M7161 5967 c2 -1 13 -9 24 -17 19 -14 19 -14 6 3 -7 9 -18 17 -24 17
-6 0 -8 -1 -6 -3z"/>
<path d="M4161 5776 c-164 -165 -182 -186 -172 -204 8 -15 8 -23 -1 -28 -6 -4
-8 -3 -4 4 3 6 3 13 -2 16 -5 3 -9 -2 -9 -10 0 -9 10 -19 22 -24 23 -9 47 -33
44 -46 -1 -5 -1 -16 0 -24 1 -13 2 -13 12 0 8 11 12 12 16 2 2 -6 10 -9 16 -5
7 4 6 -1 -2 -10 -12 -15 -11 -17 8 -17 11 0 21 -5 21 -10 0 -6 11 -21 25 -34
13 -13 21 -27 17 -32 -4 -4 0 -3 8 3 12 9 20 6 40 -14 24 -25 24 -26 3 -14
-13 6 -23 17 -23 23 0 6 -3 8 -7 5 -3 -4 1 -15 10 -25 10 -10 15 -21 12 -24
-3 -3 5 -4 18 -3 21 3 24 -1 19 -19 -5 -19 -4 -20 13 -6 10 8 16 10 12 3 -4
-6 -1 -14 5 -16 10 -4 9 -8 -2 -16 -13 -10 -13 -11 0 -12 8 -1 20 -1 26 0 6 1
18 -7 25 -16 13 -17 13 -17 -5 -3 -18 14 -19 14 -6 -7 10 -14 18 -19 25 -13 7
6 16 5 23 -2 16 -16 45 -2 38 18 -6 15 -4 15 11 3 9 -8 14 -9 10 -3 -4 7 0 15
9 18 9 4 14 13 10 22 -3 8 -2 12 4 9 5 -3 18 -1 27 5 17 11 17 11 0 6 -11 -4
-16 -2 -11 5 3 6 15 8 26 6 16 -5 17 -3 6 11 -11 13 -11 15 4 9 12 -4 15 -2
11 9 -3 8 1 14 10 14 9 0 19 5 23 12 5 7 2 9 -7 4 -8 -4 -6 -1 3 7 10 8 16 16
13 19 -3 2 5 4 18 4 16 -1 21 4 19 17 -2 11 4 17 18 17 11 0 20 5 20 11 0 5
-6 7 -12 3 -9 -5 -8 -2 1 10 11 13 16 14 22 4 6 -9 9 -6 9 9 0 12 4 25 10 28
6 3 7 -1 4 -12 -5 -17 -5 -17 6 0 6 9 8 22 5 27 -3 6 1 7 10 4 11 -5 18 0 22
16 4 17 8 19 15 8 7 -9 8 -7 5 9 -3 13 1 24 9 27 8 3 11 12 8 23 -6 17 -363
383 -374 383 -3 0 -88 -83 -189 -184z"/>
<path d="M5395 5769 c-183 -185 -188 -191 -166 -204 20 -10 21 -13 7 -18 -11
-5 -15 -3 -10 5 4 7 3 8 -4 4 -16 -10 -15 -26 1 -26 8 0 22 -9 32 -20 10 -11
22 -17 28 -13 6 4 7 1 2 -6 -5 -9 -14 -6 -33 11 l-26 23 25 -31 c18 -24 28
-29 41 -22 14 6 16 5 12 -7 -4 -8 -1 -15 6 -15 6 0 8 -4 5 -10 -6 -9 8 -14 28
-11 4 0 7 -6 7 -15 0 -9 5 -12 13 -8 9 6 9 4 -1 -8 -12 -14 -10 -16 10 -10 21
5 22 4 9 -11 -7 -9 -12 -17 -10 -18 43 -8 50 -8 43 3 -4 7 -3 8 4 4 6 -4 9
-13 6 -20 -3 -8 0 -17 5 -21 6 -3 8 -11 5 -17 -4 -6 1 -6 14 1 16 9 19 7 18
-7 0 -10 5 -16 13 -14 12 3 12 0 2 -12 -11 -13 -9 -15 9 -11 18 3 21 0 17 -15
-3 -11 -2 -19 2 -18 3 0 14 0 25 -1 16 -1 17 -3 5 -18 -10 -11 -10 -14 -1 -9
6 4 12 2 12 -3 0 -6 9 -11 21 -11 11 0 18 -4 15 -9 -4 -5 5 -4 18 2 16 8 21
14 13 19 -8 5 -6 8 5 8 10 0 22 9 28 20 6 11 16 19 23 17 7 -1 11 6 11 16 -2
16 8 22 30 18 5 -1 3 6 -5 15 -8 10 -9 15 -2 11 18 -11 45 4 38 20 -4 11 -1
13 11 9 12 -4 15 -2 10 9 -3 8 -1 15 5 15 6 0 7 6 3 13 -5 7 0 6 11 -3 10 -8
16 -10 12 -3 -5 7 1 16 13 23 11 6 20 18 20 26 0 8 5 12 10 9 6 -3 10 1 10 11
0 13 3 14 14 5 12 -10 13 -9 9 7 -2 11 0 23 6 26 7 5 9 0 5 -11 -5 -17 -5 -17
6 0 6 9 8 23 4 30 -5 7 0 6 11 -3 10 -8 16 -9 11 -3 -4 8 5 18 26 28 18 8 25
13 16 10 -10 -2 -18 0 -18 5 0 6 5 10 10 10 6 0 10 5 10 11 0 5 -6 7 -12 4 -7
-4 -6 -1 3 7 9 7 14 18 12 24 -4 13 -364 374 -372 374 -3 -1 -91 -87 -196
-191z"/>
<path d="M6605 5770 c-181 -182 -188 -191 -169 -206 19 -15 19 -16 -1 -10 -19
6 -19 5 -2 -8 9 -7 17 -21 17 -31 0 -10 3 -15 6 -12 4 4 14 -1 23 -11 9 -10
24 -21 34 -25 9 -3 17 -13 17 -22 0 -9 9 -15 23 -16 12 0 16 -3 9 -6 -9 -3 -7
-10 9 -24 12 -10 27 -16 33 -12 6 4 5 -1 -3 -10 -12 -15 -12 -17 4 -10 15 5
17 3 12 -11 -4 -9 -3 -15 2 -12 5 3 20 -3 33 -14 14 -11 29 -16 33 -12 5 4 5
1 1 -6 -7 -11 -11 -10 -25 2 -10 9 -21 16 -26 16 -4 0 2 -9 15 -20 13 -12 30
-18 38 -15 12 5 13 3 2 -10 -11 -13 -11 -16 1 -13 8 2 13 -2 12 -9 -2 -7 3
-10 11 -7 8 3 17 0 22 -7 4 -7 3 -10 -4 -5 -6 3 -14 2 -17 -4 -4 -6 -3 -10 2
-9 20 3 34 -2 28 -11 -4 -6 1 -7 11 -3 13 5 16 3 11 -10 -4 -11 -1 -17 8 -17
8 0 15 -5 15 -11 0 -5 4 -8 9 -5 5 4 12 0 15 -6 3 -7 4 -4 3 7 -1 12 3 19 11
18 6 -2 12 4 12 13 0 14 2 15 17 3 15 -13 15 -12 4 8 -9 19 -9 22 3 17 8 -3
17 0 22 7 5 8 3 10 -7 5 -8 -4 -5 -1 5 8 10 8 22 13 27 11 4 -3 11 0 15 6 5 8
3 9 -6 4 -8 -5 -11 -3 -8 6 3 8 11 13 17 11 7 -1 11 6 9 15 -2 12 3 17 15 15
10 -2 16 3 15 10 -2 7 4 12 13 12 10 -1 16 6 15 20 -1 15 4 20 17 18 10 -2 16
3 15 10 -2 7 3 12 10 10 6 -1 13 2 13 8 1 6 2 14 3 19 0 5 5 13 10 18 5 5 6 2
1 -6 -5 -9 -3 -12 6 -9 8 3 13 11 11 18 -2 7 3 10 11 7 9 -3 14 1 13 11 -1 11
6 16 17 16 14 -2 15 1 6 12 -10 12 -9 13 5 8 11 -4 16 -2 14 7 -2 8 2 13 8 12
5 -1 15 6 21 16 9 14 8 18 -3 18 -7 0 -10 -5 -7 -10 4 -6 1 -7 -7 -2 -10 6
-10 11 3 20 18 13 23 45 8 45 -5 0 -87 79 -182 175 -96 96 -179 175 -184 175
-6 0 -96 -86 -200 -190z m205 -566 c0 -8 -19 -13 -24 -6 -3 5 1 9 9 9 8 0 15
-2 15 -3z"/>
<path d="M2947 5761 l-187 -188 16 -39 c14 -34 14 -37 0 -25 -9 7 -13 18 -9
24 4 6 1 7 -6 3 -17 -11 15 -46 42 -46 11 0 18 -3 14 -6 -8 -8 16 -33 26 -27
4 2 7 -3 7 -11 0 -9 7 -16 15 -16 9 0 12 -6 9 -15 -5 -11 -2 -13 12 -8 12 4
15 3 10 -5 -4 -7 -2 -12 4 -12 6 0 9 -4 6 -9 -3 -5 5 -12 19 -15 16 -4 25 -13
25 -26 0 -11 5 -20 11 -20 5 0 7 6 3 13 -4 7 -3 9 2 4 5 -5 9 -14 9 -20 1 -7
6 -11 13 -9 15 3 16 -10 2 -26 -7 -9 -7 -9 2 -2 15 13 31 13 23 1 -3 -5 4 -12
15 -16 18 -6 22 -12 19 -32 -1 -7 30 -26 49 -29 8 -2 17 -6 20 -10 4 -4 -1 -4
-10 -1 -23 8 -23 -5 0 -26 17 -15 19 -15 35 3 9 11 17 26 17 32 0 7 6 4 13 -6
12 -16 13 -16 14 5 1 12 7 27 13 33 8 8 9 6 5 -9 -5 -16 -4 -16 7 3 8 12 18
19 23 15 5 -4 3 1 -5 12 -8 11 -11 17 -6 13 11 -9 35 14 28 27 -3 6 3 3 13 -5
11 -9 16 -10 11 -2 -4 6 -2 12 3 12 6 0 11 8 11 18 0 14 2 15 10 2 8 -12 10
-11 10 7 0 12 4 25 10 28 6 3 7 -1 4 -12 -3 -11 0 -9 8 5 8 12 18 19 23 15 5
-4 3 0 -4 10 -12 15 -12 17 4 10 14 -5 17 -3 12 10 -4 11 -2 14 9 10 9 -3 14
1 14 13 0 16 2 17 11 4 9 -12 10 -11 6 7 -3 15 -1 20 9 16 9 -3 14 1 14 12 0
12 6 15 23 10 12 -3 18 -3 12 2 -15 12 -17 33 -2 27 7 -2 23 10 36 27 13 18
19 29 13 25 -6 -3 -13 -2 -17 4 -3 5 -1 10 4 10 6 0 11 4 11 10 0 8 -366 381
-373 380 -1 0 -86 -85 -190 -189z m183 -591 c0 -5 -2 -10 -4 -10 -3 0 -8 5
-11 10 -3 6 -1 10 4 10 6 0 11 -4 11 -10z"/>
<path d="M7868 5749 c-115 -116 -178 -186 -178 -200 0 -13 -4 -18 -12 -13 -7
4 -8 3 -4 -5 4 -6 11 -9 16 -6 12 7 23 -32 14 -47 -6 -10 -3 -9 9 0 14 12 16
11 12 -7 -2 -14 1 -18 11 -14 8 3 14 0 14 -7 0 -6 4 -9 9 -6 5 3 11 -1 14 -9
4 -10 1 -12 -11 -9 -14 5 -14 4 1 -6 10 -6 25 -9 32 -6 8 3 14 2 13 -2 -3 -12
25 -62 34 -62 5 0 6 5 2 12 -4 7 -3 8 5 4 9 -6 9 -11 0 -22 -10 -12 -9 -13 5
-8 9 3 16 1 16 -6 0 -6 4 -9 9 -6 5 3 15 -2 22 -11 10 -12 10 -14 2 -9 -7 4
-13 3 -13 -1 0 -5 10 -13 23 -18 12 -6 26 -20 32 -32 5 -13 13 -23 18 -23 4 0
5 -4 2 -10 -3 -5 0 -7 8 -4 9 3 16 -3 20 -16 3 -12 15 -24 26 -27 12 -3 18
-10 14 -17 -4 -6 0 -5 9 2 13 10 18 10 24 1 5 -8 3 -9 -6 -4 -9 5 -11 4 -6 -3
10 -17 45 7 52 35 3 12 13 28 22 35 15 12 16 11 3 -4 -7 -10 -9 -18 -3 -18 5
0 15 14 21 31 6 17 20 33 31 36 11 3 20 12 20 19 0 12 13 19 23 12 10 -8 35
26 30 39 -5 12 -3 14 7 8 10 -6 12 -4 6 10 -6 16 -4 16 11 4 15 -13 16 -12 11
9 -6 20 -4 22 10 10 9 -7 14 -9 10 -4 -9 11 31 48 44 40 6 -4 8 -3 4 4 -3 5 0
13 6 16 7 3 2 4 -12 1 -22 -4 -21 -3 5 9 17 8 35 11 40 8 6 -3 4 2 -4 11 -12
15 -12 17 3 11 16 -6 23 10 9 19 -5 2 -3 2 4 1 21 -5 33 21 24 52 -9 31 -355
385 -375 383 -6 0 -91 -81 -188 -180z m562 -229 c0 -5 -4 -10 -10 -10 -5 0
-10 5 -10 10 0 6 5 10 10 10 6 0 10 -4 10 -10z m-180 -194 c0 -3 -4 -8 -10
-11 -5 -3 -10 -1 -10 4 0 6 5 11 10 11 6 0 10 -2 10 -4z m-236 -132 c3 -8 2
-12 -4 -9 -6 3 -10 10 -10 16 0 14 7 11 14 -7z m86 -8 c0 -2 -8 -10 -17 -17
-16 -13 -17 -12 -4 4 13 16 21 21 21 13z"/>
<path d="M1706 5734 c-168 -167 -185 -187 -175 -206 9 -16 8 -19 -2 -13 -7 5
-10 4 -5 -3 3 -5 0 -13 -6 -16 -7 -3 -3 -3 9 0 18 4 22 2 17 -10 -4 -11 0 -16
11 -16 11 0 15 -5 11 -16 -4 -10 -2 -13 6 -8 8 5 9 2 5 -10 -4 -9 -3 -15 2
-12 4 3 16 -3 26 -14 10 -11 25 -20 34 -20 14 0 14 -2 1 -10 -12 -8 -11 -10 8
-10 20 0 27 -10 23 -32 -2 -12 14 -9 27 4 16 16 16 -4 0 -21 -10 -11 -10 -13
0 -7 7 5 12 1 12 -11 0 -15 2 -16 10 -3 7 11 10 11 10 2 0 -7 5 -10 11 -6 8 5
8 1 0 -14 -9 -17 -8 -19 9 -15 18 5 25 -5 21 -29 0 -5 6 -8 15 -8 9 0 12 -5 8
-12 -6 -10 -4 -10 7 0 7 6 17 12 22 12 5 0 5 -6 -1 -12 -11 -14 10 -43 22 -31
3 4 6 1 6 -5 0 -5 -3 -12 -7 -15 -5 -2 -3 -2 4 -1 6 2 14 -3 16 -10 3 -7 17
-16 31 -18 16 -3 23 -1 19 5 -4 7 1 8 12 3 14 -5 16 -4 6 8 -9 11 -7 15 10 19
13 4 18 10 13 18 -4 8 -3 10 4 5 7 -4 12 -1 12 8 0 9 5 16 11 16 5 0 7 -5 3
-12 -4 -7 -3 -8 5 -4 6 4 9 12 6 17 -4 5 2 9 12 9 15 0 16 2 3 10 -13 8 -12
10 5 11 11 1 23 1 28 0 4 0 7 3 7 9 0 6 -5 10 -11 10 -5 0 -7 5 -4 10 4 6 11
8 16 5 5 -4 9 -1 9 5 0 6 4 9 9 6 12 -8 34 20 27 33 -4 5 -2 12 4 16 5 3 10 1
10 -5 0 -6 4 -9 10 -5 5 3 7 12 3 21 -3 9 0 14 8 12 8 -2 13 4 13 14 -1 14 2
15 17 8 15 -9 17 -8 12 7 -5 12 -2 15 10 10 15 -5 16 -3 7 13 -9 17 -7 18 17
14 22 -4 24 -2 15 9 -15 18 -3 30 15 16 9 -8 13 -8 13 -1 0 6 -5 14 -10 17 -6
4 -8 11 -4 16 4 6 11 6 19 -1 10 -8 15 -8 21 1 4 7 3 9 -3 6 -6 -4 -10 4 -10
18 0 14 4 22 9 19 6 -4 6 1 0 12 -12 21 -365 374 -375 374 -3 0 -89 -84 -191
-186z m-82 -320 c7 -19 2 -18 -19 6 -16 17 -16 20 -3 15 9 -4 19 -13 22 -21z
m466 -100 c0 -8 -19 -13 -24 -6 -3 5 1 9 9 9 8 0 15 -2 15 -3z"/>
<path d="M2363 5882 c10 -10 14 -22 10 -27 -5 -4 -2 -5 5 -1 11 6 10 12 -4 27
-9 10 -19 19 -22 19 -3 0 2 -8 11 -18z"/>
<path d="M3821 5786 c-10 -11 -9 -14 1 -12 14 2 23 15 15 22 -2 2 -10 -2 -16
-10z"/>
<path d="M2515 5730 c3 -5 8 -10 11 -10 2 0 4 5 4 10 0 6 -5 10 -11 10 -5 0
-7 -4 -4 -10z"/>
<path d="M4000 5516 c0 -2 8 -10 18 -17 15 -13 16 -12 3 4 -13 16 -21 21 -21
13z"/>
<path d="M6511 5444 c0 -11 3 -14 6 -6 3 7 2 16 -1 19 -3 4 -6 -2 -5 -13z"/>
<path d="M7006 5367 c3 -10 9 -15 12 -12 3 3 0 11 -7 18 -10 9 -11 8 -5 -6z"/>
<path d="M6048 5144 c-151 -151 -171 -174 -148 -174 6 0 8 -5 5 -10 -4 -6 -11
-7 -17 -4 -6 4 -6 -1 1 -14 6 -12 17 -24 24 -28 9 -5 9 -4 0 7 -7 7 -13 18
-13 23 0 6 8 -1 17 -14 10 -14 30 -36 45 -48 16 -13 28 -31 28 -39 0 -9 6 -13
14 -10 10 4 13 1 9 -9 -3 -8 1 -14 10 -14 8 0 17 -7 21 -15 3 -8 0 -15 -6 -15
-6 0 -8 -3 -5 -6 4 -4 14 -1 24 7 9 8 14 9 10 3 -4 -7 0 -14 8 -18 8 -3 15
-11 15 -18 0 -9 -3 -9 -11 2 -9 13 -10 13 -6 0 2 -8 10 -14 17 -12 16 4 60
-37 60 -55 0 -7 5 -13 11 -13 5 0 7 -6 3 -12 -5 -8 0 -7 11 2 15 12 17 12 10
1 -6 -11 -4 -13 8 -8 9 3 19 1 23 -5 4 -7 3 -8 -4 -4 -8 5 -10 1 -5 -10 5 -15
7 -15 15 0 5 9 14 13 20 10 7 -4 8 -2 4 5 -4 6 -12 8 -18 5 -7 -5 -8 -2 -4 5
5 7 15 10 23 6 14 -5 14 -3 2 12 -9 11 -10 14 -1 9 6 -4 12 -2 12 3 0 6 5 11
11 11 5 0 7 -5 3 -12 -4 -7 -3 -8 5 -4 9 6 9 11 -1 24 -10 12 -10 14 -1 8 7
-4 23 0 35 9 l23 17 -25 -6 c-24 -5 -23 -5 2 7 23 10 26 16 15 26 -10 10 -9
11 4 6 10 -4 20 -1 24 4 3 6 11 9 16 6 5 -3 6 1 3 9 -4 9 1 18 10 22 9 3 13
11 9 18 -4 6 0 6 9 -2 13 -11 16 -10 14 5 0 12 5 17 17 17 13 -2 15 1 7 11 -8
10 -8 15 1 21 8 4 9 3 5 -4 -4 -7 -4 -12 -1 -12 9 0 40 32 40 41 0 4 4 11 9
16 5 5 6 3 2 -4 -4 -7 -2 -13 3 -13 14 0 14 17 1 25 -5 3 -7 12 -4 20 4 8 9
13 13 10 4 -2 7 1 7 8 -1 7 -72 82 -158 167 l-157 156 -153 -152z"/>
<path d="M1176 5130 c-125 -126 -149 -155 -150 -181 -1 -23 6 -35 26 -47 16
-9 24 -21 20 -30 -3 -10 -1 -13 6 -8 7 4 12 2 12 -3 0 -6 7 -11 16 -11 8 0 12
-4 9 -10 -3 -5 -1 -10 5 -10 6 0 8 -5 5 -10 -4 -6 -3 -10 2 -9 18 3 36 -1 29
-8 -3 -4 6 -13 21 -20 26 -12 26 -12 3 -7 l-25 7 28 -27 c15 -14 31 -26 35
-26 4 0 -2 7 -12 15 -11 8 -15 15 -9 15 16 0 36 -28 28 -40 -3 -5 2 -10 11
-10 20 0 74 -48 74 -66 0 -6 9 -14 21 -17 16 -4 18 -3 9 8 -9 10 -7 13 7 10
29 -4 46 14 31 33 -9 11 -9 13 -1 9 6 -4 21 5 34 20 16 21 20 23 15 8 -4 -12
5 -6 21 15 16 19 29 38 29 42 1 5 2 11 3 14 0 4 8 1 16 -6 12 -10 14 -8 10 9
-3 15 0 18 13 14 15 -6 15 -4 4 9 -11 14 -10 16 13 14 19 -3 23 0 15 9 -8 9
-3 17 17 30 15 10 33 18 40 18 9 0 9 5 1 20 -7 14 -7 18 1 12 7 -4 19 -1 27 6
12 10 12 14 2 20 -10 7 -10 11 0 21 9 9 -20 44 -140 165 -84 84 -157 153 -163
153 -5 0 -77 -68 -159 -150z m279 -380 c-3 -5 -12 -10 -18 -10 -7 0 -6 4 3 10
19 12 23 12 15 0z"/>
<path d="M3582 5128 c-143 -144 -150 -153 -135 -171 16 -16 16 -17 0 -12 -14
6 -14 4 -4 -18 6 -14 14 -25 17 -25 18 1 30 -3 30 -12 0 -5 -8 -7 -17 -4 -10
3 -7 -1 7 -9 14 -9 29 -13 34 -10 5 4 6 1 3 -4 -4 -6 0 -14 9 -17 9 -3 14 -12
11 -19 -3 -8 1 -14 9 -14 7 0 10 5 7 10 -4 6 -1 7 6 3 7 -5 10 -14 7 -22 -3
-8 1 -14 10 -14 9 0 12 -5 8 -12 -5 -8 -2 -9 9 -5 10 3 17 2 17 -2 0 -5 -6
-12 -12 -14 -11 -5 15 -11 34 -9 3 1 9 -5 12 -14 4 -10 2 -13 -7 -8 -9 5 -8 3
1 -7 11 -12 14 -12 23 1 8 12 9 11 7 -5 -2 -14 2 -20 15 -19 12 1 15 -2 8 -10
-6 -7 0 -17 17 -31 27 -19 27 -19 13 0 -14 19 -14 19 4 3 15 -14 16 -20 6 -32
-11 -13 -9 -13 12 -3 14 6 23 16 20 21 -4 5 1 7 9 3 12 -4 15 0 13 19 -2 24
-2 24 18 7 19 -18 20 -18 7 6 -7 15 -8 21 -1 17 6 -4 19 -2 28 3 14 8 15 10 3
11 -9 0 -4 6 10 13 13 7 30 23 36 36 7 13 26 33 43 43 17 11 28 25 24 31 -4 6
-1 8 8 5 8 -3 22 6 33 21 l20 26 -22 -19 c-12 -11 -22 -15 -22 -10 0 13 39 36
50 29 5 -3 7 4 5 16 -4 17 -2 19 11 8 13 -10 13 -8 5 14 -7 18 -7 28 1 33 6 4
8 3 5 -3 -4 -6 1 -17 10 -24 15 -12 16 -12 8 1 -5 8 -11 24 -12 34 -3 19 -295
316 -311 316 -4 0 -76 -69 -160 -152z m298 -373 c0 -2 -10 -9 -22 -15 -22 -11
-22 -10 -4 4 21 17 26 19 26 11z"/>
<path d="M4822 5127 c-138 -139 -174 -187 -139 -187 7 0 8 -3 2 -8 -15 -11
-16 -32 -1 -26 7 3 19 -3 27 -13 12 -16 12 -17 -1 -8 -9 6 -4 0 10 -12 14 -13
31 -23 38 -23 6 0 12 -7 12 -15 0 -8 -5 -15 -11 -15 -5 0 -7 5 -3 12 5 7 3 8
-5 3 -9 -5 -10 -10 -2 -18 7 -7 15 -6 25 2 13 11 15 10 11 -7 -4 -22 19 -37
37 -25 6 3 8 1 4 -5 -3 -6 0 -17 8 -25 8 -8 12 -18 8 -22 -4 -5 -2 -5 4 -2 7
4 20 -1 31 -11 10 -9 13 -13 6 -8 -10 7 -12 4 -7 -8 4 -11 14 -16 26 -13 15 4
17 3 8 -8 -8 -9 -6 -14 6 -19 9 -3 20 -3 25 0 5 3 9 2 8 -3 -4 -22 3 -33 19
-33 10 0 23 -5 28 -10 7 -7 11 -6 11 4 0 8 -5 12 -10 9 -6 -4 -7 -1 -3 6 5 7
15 10 23 6 13 -4 14 -3 4 9 -11 13 -9 15 8 11 24 -4 47 28 35 48 -5 6 1 5 11
-3 10 -8 16 -10 12 -4 -4 7 7 29 23 49 17 21 30 33 30 27 0 -6 -4 -14 -10 -17
-5 -3 -15 -16 -20 -28 -8 -16 -5 -14 10 6 12 15 25 25 30 22 4 -3 7 3 6 13 0
9 4 16 11 15 7 -2 10 6 8 18 -4 21 -4 21 18 3 12 -10 16 -12 10 -4 -18 20 -16
33 3 26 14 -5 15 -4 5 8 -11 13 -9 15 8 11 15 -3 18 0 14 12 -4 11 -2 14 5 9
7 -4 12 -2 12 4 0 7 6 10 13 7 8 -3 14 1 14 8 0 8 -7 11 -16 7 -9 -3 -2 6 14
21 22 20 25 25 10 21 -18 -6 -19 -5 -4 10 14 15 3 29 -141 171 -86 85 -159
155 -161 155 -2 0 -73 -69 -157 -153z"/>
<path d="M7288 5119 c-80 -82 -149 -158 -153 -170 -5 -16 -4 -19 5 -14 10 6
10 3 2 -11 -13 -24 12 -66 35 -57 13 5 15 2 10 -16 -5 -19 -3 -20 9 -10 12 10
15 10 12 -1 -2 -7 7 -19 19 -25 13 -7 20 -15 16 -18 -3 -4 -1 -7 6 -7 7 0 11
-6 8 -14 -4 -10 0 -12 16 -8 20 5 21 4 8 -11 -12 -15 -12 -17 3 -11 21 8 46
-13 46 -40 0 -18 2 -19 11 -6 9 12 10 11 6 -8 -3 -12 -2 -20 1 -18 4 2 21 -2
37 -10 17 -8 22 -12 13 -10 -12 4 -15 0 -11 -9 3 -8 9 -12 14 -9 5 3 9 0 9 -6
0 -7 7 -9 16 -6 8 3 13 2 10 -3 -3 -5 1 -11 8 -14 11 -4 14 0 11 16 -4 22 -4
22 11 2 16 -20 16 -20 9 3 -7 23 9 31 19 10 4 -7 4 -3 2 10 -4 21 3 26 40 25
6 0 10 10 8 22 -1 16 3 22 15 21 10 -1 16 6 15 21 0 18 2 20 13 11 8 -6 13 -7
12 -2 -3 19 1 34 11 34 5 0 7 -8 4 -17 -5 -15 -4 -16 5 -3 6 8 11 23 11 32 0
12 5 15 18 11 15 -6 15 -5 3 10 -12 15 -12 17 4 11 13 -5 16 -4 11 4 -5 8 -2
10 8 6 11 -4 16 0 16 11 0 10 5 13 12 9 8 -5 9 -2 5 10 -4 10 -3 15 3 11 6 -3
10 -1 10 5 0 7 6 10 14 7 10 -4 13 3 11 24 -1 16 2 32 7 35 9 6 -273 298 -302
313 -11 6 -55 -32 -162 -140z m-123 -227 c-3 -3 -11 0 -18 7 -9 10 -8 11 6 5
10 -3 15 -9 12 -12z"/>
<path d="M8503 5117 c-142 -142 -170 -177 -142 -177 8 0 8 -4 0 -14 -10 -11
-8 -16 8 -21 12 -4 18 -12 14 -21 -3 -8 1 -14 11 -14 9 0 16 -5 16 -11 0 -5 4
-8 9 -4 6 3 8 -4 6 -16 -4 -18 -2 -19 13 -8 9 7 14 9 10 5 -4 -5 0 -15 10 -23
9 -8 11 -11 3 -7 -9 5 -12 3 -7 -4 4 -7 14 -12 22 -12 8 0 24 -10 36 -22 18
-18 18 -20 3 -15 -15 6 -16 5 -6 -7 7 -8 19 -12 27 -9 10 4 12 0 8 -11 -4 -11
-1 -16 10 -16 9 0 16 -7 16 -15 0 -8 5 -16 10 -16 6 -1 15 -2 22 -3 6 0 12 -9
14 -20 3 -20 44 -63 44 -46 0 6 4 9 9 5 12 -7 33 29 23 41 -4 5 2 2 12 -6 13
-10 17 -10 12 -2 -4 7 -2 12 4 12 7 0 10 7 7 14 -4 10 -1 13 9 9 9 -3 14 1 14
12 0 11 5 15 14 12 19 -8 28 3 16 19 -8 9 -6 12 6 10 9 0 19 5 22 13 3 9 0 11
-8 6 -8 -5 -11 -4 -6 3 4 6 13 9 21 5 10 -3 15 1 15 12 0 12 5 15 16 11 15 -6
15 -4 3 10 -13 16 -12 16 8 6 18 -10 20 -9 16 7 -3 10 0 22 6 25 7 5 9 0 5
-11 -3 -11 0 -9 8 5 8 12 18 19 23 15 5 -4 3 1 -5 11 -10 13 -10 17 -2 12 6
-4 12 -3 12 3 0 6 7 8 15 5 11 -5 13 -2 9 10 -4 11 -2 15 7 11 8 -3 20 4 27
16 8 12 9 18 3 15 -5 -4 -12 -2 -16 4 -3 5 -1 10 4 10 6 0 11 4 11 9 0 9 -310
321 -319 321 -3 0 -75 -69 -158 -153z m147 -471 c0 -3 -4 -8 -10 -11 -5 -3
-10 -1 -10 4 0 6 5 11 10 11 6 0 10 -2 10 -4z m24 -14 c3 -5 -1 -9 -9 -9 -8 0
-12 4 -9 9 3 4 7 8 9 8 2 0 6 -4 9 -8z"/>
<path d="M8167 5253 c-4 -3 -7 -11 -7 -17 0 -6 5 -5 12 2 6 6 9 14 7 17 -3 3
-9 2 -12 -2z"/>
<path d="M2351 5096 c-154 -155 -155 -155 -141 -183 7 -15 14 -37 14 -47 1
-11 8 -21 16 -23 13 -4 13 -3 0 7 -13 10 -13 11 0 7 8 -2 20 -13 26 -25 6 -12
14 -19 19 -14 5 4 5 2 1 -5 -7 -12 21 -53 37 -53 5 0 1 7 -7 16 -9 8 -16 20
-16 26 0 6 1 9 3 7 1 -2 19 -23 40 -45 24 -26 32 -41 23 -41 -8 0 -14 5 -13
10 1 5 -5 12 -13 14 -12 4 -12 3 -2 -5 8 -5 12 -13 10 -17 -1 -4 8 -10 21 -12
13 -2 38 -16 56 -32 26 -23 30 -30 17 -37 -12 -8 -10 -10 8 -11 12 -1 32 -11
44 -22 12 -12 26 -21 32 -21 5 0 2 5 -6 11 -12 9 -11 10 7 6 17 -4 21 -1 18
15 -4 17 -2 18 12 6 12 -9 15 -9 9 0 -4 7 -2 12 4 12 6 0 8 5 5 11 -4 6 3 13
15 16 12 3 19 11 16 19 -3 9 3 11 22 9 15 -2 21 -2 15 1 -7 3 -13 13 -13 22 0
15 2 15 10 2 7 -11 10 -11 10 -2 0 7 4 11 9 7 6 -3 8 4 6 16 -4 17 -2 19 11 8
12 -10 13 -9 9 3 -7 18 20 42 36 32 7 -4 9 -3 5 4 -3 6 5 22 18 37 17 18 26
22 30 13 3 -7 4 -2 2 10 -3 13 -2 21 1 18 4 -3 13 0 21 7 13 10 14 9 7 -3 -6
-12 -5 -12 5 -3 14 13 4 37 -13 26 -6 -3 -1 8 12 25 12 18 19 32 14 32 -5 0
-76 67 -158 150 -83 82 -152 150 -155 150 -3 0 -75 -70 -159 -154z"/>
<path d="M4333 5187 c0 -7 9 -14 20 -14 11 -1 18 -1 16 0 -2 2 -11 8 -20 15
-12 9 -16 9 -16 -1z"/>
<path d="M2199 4897 c6 -8 7 -18 3 -22 -4 -5 -1 -5 6 -1 10 6 10 11 1 22 -6 8
-14 14 -16 14 -3 0 0 -6 6 -13z"/>
<path d="M5946 4876 c3 -8 13 -17 22 -21 13 -5 13 -2 -3 15 -21 24 -26 25 -19
6z"/>
<path d="M1566 4855 c-11 -8 -15 -15 -9 -15 6 0 16 7 23 15 16 19 11 19 -14 0z"/>
<path d="M2696 4772 c-3 -5 1 -9 9 -9 8 0 12 4 9 9 -3 4 -7 8 -9 8 -2 0 -6 -4
-9 -8z"/>
<path d="M8475 4770 c3 -5 8 -10 11 -10 2 0 4 5 4 10 0 6 -5 10 -11 10 -5 0
-7 -4 -4 -10z"/>
<path d="M7306 4727 c3 -10 9 -15 12 -12 3 3 0 11 -7 18 -10 9 -11 8 -5 -6z"/>
<path d="M6110 4712 c6 -13 14 -21 18 -18 3 4 -2 14 -12 24 -18 16 -18 16 -6
-6z"/>
<path d="M1248 4693 c6 -2 9 -10 5 -16 -3 -7 -2 -9 2 -4 5 4 18 -1 29 -10 15
-13 14 -10 -3 10 -14 15 -29 27 -35 26 -6 0 -5 -3 2 -6z"/>
<path d="M2390 4697 c0 -10 41 -49 46 -45 2 3 -7 15 -21 28 -14 13 -25 20 -25
17z"/>
<path d="M1797 4501 c-120 -121 -143 -151 -114 -151 8 0 7 -4 -3 -10 -10 -6
-11 -10 -2 -10 6 0 12 -5 12 -11 0 -5 -4 -7 -10 -4 -6 3 -7 -1 -3 -10 4 -11 8
-13 13 -5 8 12 22 -2 34 -34 4 -11 12 -16 22 -12 8 3 12 2 9 -4 -3 -6 -1 -10
4 -10 6 0 11 -7 11 -15 0 -8 5 -15 11 -15 5 0 7 -6 3 -12 -6 -10 -5 -10 8 -1
17 14 29 8 22 -12 -3 -7 4 -19 15 -27 12 -8 18 -19 13 -24 -4 -4 1 -2 11 5 15
12 17 11 17 -8 0 -12 5 -19 10 -16 6 3 10 0 10 -7 0 -7 13 -20 29 -30 28 -16
29 -15 26 3 -3 16 -1 17 14 9 15 -8 18 -5 16 15 -2 15 1 22 9 19 7 -3 19 2 26
10 7 9 16 13 21 11 4 -3 6 4 4 15 -3 15 1 20 13 18 9 -2 17 3 18 10 1 6 2 17
3 23 1 8 5 8 15 0 12 -10 13 -8 9 10 -4 14 -2 20 4 16 6 -4 17 1 24 10 12 15
12 16 -4 10 -12 -4 -16 -3 -11 4 3 6 18 8 33 5 14 -3 20 -3 14 0 -19 8 -16 27
3 20 8 -3 12 -2 9 4 -3 6 -1 10 4 10 6 0 11 5 11 11 0 5 -5 7 -11 3 -6 -3 -3
6 6 20 23 35 13 52 -70 128 -35 31 -60 59 -57 62 3 3 0 6 -6 6 -7 0 -29 18
-49 41 -62 68 -55 71 -196 -70z m209 -359 c-17 -16 -18 -16 -5 5 7 12 15 20
18 17 3 -2 -3 -12 -13 -22z"/>
<path d="M2470 4610 c0 -5 5 -10 11 -10 5 0 7 5 4 10 -3 6 -8 10 -11 10 -2 0
-4 -4 -4 -10z"/>
<path d="M4228 4491 c-103 -104 -126 -133 -123 -152 3 -12 -1 -29 -8 -38 -9
-12 -9 -13 1 -7 6 4 12 3 12 -3 0 -6 7 -8 15 -5 11 5 13 2 8 -12 -4 -12 -3
-15 5 -10 7 4 12 2 12 -4 0 -6 5 -8 10 -5 6 3 10 -3 10 -15 0 -12 5 -18 10
-15 6 3 10 -1 10 -9 0 -9 3 -15 8 -15 21 4 32 -3 32 -20 0 -11 9 -23 20 -26
11 -4 18 -11 15 -16 -3 -5 1 -6 9 -3 9 3 17 -2 21 -15 3 -12 10 -19 15 -16 5
3 11 1 15 -5 3 -5 0 -10 -7 -10 -9 0 -9 -3 2 -10 21 -14 33 -12 24 3 -6 9 -4
9 7 1 8 -6 23 -14 33 -18 17 -6 17 -5 5 11 -12 15 -12 16 3 10 10 -3 17 -3 17
1 -3 18 2 32 12 32 5 0 7 -6 3 -12 -4 -7 2 -5 13 5 13 12 19 26 16 40 -3 13
-1 18 4 12 4 -5 14 -11 22 -13 11 -2 12 0 2 11 -9 12 -8 16 5 21 9 3 21 3 27
-1 7 -4 5 2 -3 12 -14 17 -13 18 8 13 12 -4 20 -3 17 2 -3 4 2 13 10 20 8 7
12 17 9 22 -3 5 1 8 9 6 9 -2 17 2 18 7 1 6 10 16 20 23 15 10 17 17 9 33 -7
13 -7 19 0 19 25 0 1 30 -120 151 -72 71 -132 129 -133 128 -1 0 -59 -58 -129
-128z m222 -355 c0 -3 -4 -8 -10 -11 -5 -3 -10 -1 -10 4 0 6 5 11 10 11 6 0
10 -2 10 -4z"/>
<path d="M5437 4492 c-114 -115 -150 -157 -114 -136 7 5 6 0 -3 -11 -9 -11
-10 -16 -2 -11 15 9 16 -6 1 -21 -8 -8 -7 -13 2 -18 8 -5 10 -4 5 3 -4 7 -2
12 3 12 6 0 12 -4 12 -10 1 -5 2 -14 3 -19 0 -5 5 -13 10 -18 5 -5 6 -3 2 5
-4 6 -2 12 3 12 6 0 11 -5 11 -11 0 -5 6 -7 13 -3 8 5 7 2 -2 -9 -12 -15 -12
-17 0 -12 17 6 109 -81 109 -103 0 -9 6 -12 16 -8 8 3 12 2 9 -4 -3 -6 -1 -10
4 -10 6 0 11 -7 11 -15 0 -9 9 -15 23 -15 15 0 18 -3 9 -8 -9 -6 -5 -12 14
-21 24 -10 26 -10 15 3 -10 12 -8 16 11 22 13 4 26 8 30 9 3 0 10 4 15 9 5 5
2 6 -6 1 -9 -5 -12 -3 -9 6 3 8 11 13 18 11 8 -2 11 4 8 16 -3 11 0 19 7 19 7
0 11 -7 9 -16 -2 -9 3 -1 11 17 13 27 20 32 38 27 17 -5 19 -4 7 4 -13 10 -13
12 0 20 8 5 18 7 22 5 4 -3 5 3 1 12 -5 14 -3 16 11 11 10 -4 15 -3 11 3 -3 6
0 10 7 10 9 0 9 3 -2 10 -12 8 -10 10 8 10 13 0 20 4 17 10 -3 6 -1 10 5 10 6
0 8 5 4 13 -5 8 -2 7 9 -2 16 -13 17 -12 8 11 -7 18 -6 29 2 37 9 9 -21 44
-118 141 -71 72 -134 130 -140 130 -6 0 -68 -57 -138 -128z"/>
<path d="M6694 4484 c-67 -68 -120 -124 -117 -124 2 0 -1 -10 -8 -21 -6 -12
-7 -19 -1 -15 5 3 13 -1 16 -10 3 -8 2 -12 -4 -9 -6 3 -10 1 -10 -4 0 -6 9
-11 20 -11 13 0 20 -7 20 -18 0 -11 10 -27 23 -38 l22 -19 -20 25 -20 25 23
-19 c12 -11 28 -31 35 -45 7 -14 23 -31 37 -38 13 -7 30 -20 37 -29 7 -9 17
-13 24 -8 7 4 10 3 5 -4 -3 -5 0 -13 6 -16 7 -3 2 -3 -12 0 -19 4 -22 3 -10
-5 8 -6 23 -11 34 -11 15 0 16 -3 6 -15 -7 -9 -10 -18 -6 -22 3 -3 6 -1 6 5 0
7 7 12 16 12 14 0 14 -3 4 -15 -16 -20 -6 -19 14 1 9 9 16 11 16 4 0 -6 5 -8
10 -5 6 4 8 11 5 16 -4 5 -1 9 5 9 6 0 9 4 5 9 -3 5 -1 12 5 16 5 3 10 1 10
-4 0 -6 4 -11 9 -11 6 0 8 9 6 19 -3 15 1 19 15 16 13 -2 17 1 14 10 -6 15 29
38 41 27 4 -4 2 4 -5 17 -6 13 -7 21 -2 17 6 -3 13 0 15 6 4 10 6 10 6 1 1 -7
6 -13 11 -13 6 0 10 8 8 18 -2 11 4 18 18 20 16 2 21 9 18 25 -2 12 -2 16 2 9
8 -17 24 -5 17 13 -4 11 0 14 13 9 11 -4 16 -4 12 1 -4 4 -3 14 4 22 9 11 7
12 -8 7 -18 -5 -18 -5 0 10 19 15 14 22 -114 151 -74 74 -139 134 -145 134 -5
-1 -65 -57 -131 -125z m3 -281 c-4 -3 -1 -13 6 -22 11 -14 10 -14 -5 -2 -16
12 -16 31 -1 31 4 0 3 -3 0 -7z"/>
<path d="M7906 4479 c-115 -117 -128 -133 -118 -150 7 -11 8 -19 2 -19 -5 0
-7 -7 -3 -16 5 -13 8 -13 15 -2 7 9 8 5 5 -15 -3 -22 -2 -25 9 -16 14 11 20 1
15 -25 -1 -5 6 -3 15 5 12 9 15 9 10 2 -4 -8 -2 -13 5 -13 8 0 7 -5 -2 -17
-13 -15 -12 -15 11 -3 14 7 22 9 18 5 -5 -5 1 -14 12 -22 11 -8 25 -24 31 -36
8 -16 3 -14 -16 8 l-27 30 22 -33 c17 -26 25 -30 36 -22 10 10 12 7 9 -10 -4
-19 -2 -20 12 -8 12 9 15 9 9 1 -4 -7 -2 -13 3 -13 6 0 11 -5 11 -11 0 -5 -5
-7 -12 -3 -7 4 -8 3 -4 -5 6 -9 11 -9 24 1 10 8 13 9 9 1 -4 -6 -3 -14 3 -18
6 -4 8 -11 5 -16 -3 -5 1 -6 10 -3 10 4 14 1 12 -7 -2 -8 -2 -11 0 -6 3 4 9 4
15 1 5 -4 4 4 -3 17 -12 23 -11 23 6 9 17 -14 18 -13 12 4 -7 17 -6 17 10 5
15 -13 16 -12 11 9 -6 20 -4 22 10 10 9 -7 13 -8 9 -2 -4 7 2 14 13 17 14 4
18 10 13 23 -4 12 -3 15 5 10 7 -4 12 -1 12 8 0 9 5 16 11 16 5 0 7 -6 3 -12
-4 -7 9 5 30 27 20 22 37 43 37 48 1 4 2 11 3 16 0 5 5 13 10 18 5 5 6 3 2 -4
-4 -8 -1 -13 8 -13 9 0 13 6 10 13 -3 8 3 20 13 28 16 13 17 12 4 -3 -7 -10
-9 -18 -3 -18 12 0 24 29 16 41 -3 5 -1 16 4 24 6 12 -19 42 -107 128 -63 62
-121 120 -129 130 -7 9 -16 17 -20 17 -4 -1 -65 -60 -136 -131z m314 -252 c0
-2 -12 -14 -27 -28 l-28 -24 24 28 c23 25 31 32 31 24z"/>
<path d="M2966 4470 c-102 -102 -127 -132 -118 -143 9 -10 9 -16 0 -25 -8 -8
-7 -13 6 -18 14 -5 14 -9 4 -22 -11 -13 -10 -14 10 -8 14 5 22 3 22 -4 0 -6 6
-8 13 -4 10 6 10 4 0 -7 -18 -18 -16 -34 2 -19 8 7 15 8 15 3 0 -5 11 -16 25
-23 14 -7 23 -15 20 -18 -2 -3 -11 1 -20 8 -13 11 -14 10 -9 -4 3 -9 14 -16
24 -16 10 0 27 -11 38 -25 11 -13 21 -23 23 -22 3 1 1 -2 -3 -7 -12 -16 -10
-32 3 -19 13 13 56 -19 69 -52 8 -19 9 -19 9 -1 1 16 3 17 18 5 11 -10 14 -10
9 -1 -4 7 -2 12 4 12 6 0 8 5 5 10 -4 6 -11 7 -17 4 -7 -4 -8 -2 -4 4 5 8 13
9 25 2 14 -7 23 -4 37 12 11 12 13 18 5 13 -9 -5 -12 -3 -9 6 3 8 11 13 17 11
7 -1 11 6 9 15 -2 13 2 17 16 15 14 -3 17 1 13 12 -5 13 -3 15 11 7 16 -8 18
-6 16 20 -1 16 2 26 7 23 5 -3 6 -10 3 -16 -4 -7 -2 -8 4 -4 7 4 12 14 12 22
0 8 5 14 11 14 5 0 7 -4 4 -10 -10 -16 1 -11 16 7 10 11 10 14 2 9 -7 -4 -13
-2 -13 3 0 11 15 15 35 11 6 -1 4 4 -2 11 -7 7 -13 18 -13 24 0 5 4 4 9 -4 8
-12 12 -12 25 -2 9 8 16 19 16 25 0 6 -5 4 -10 -4 -8 -13 -10 -12 -10 3 0 9 4
17 9 17 25 0 -5 39 -112 145 -64 65 -117 121 -117 126 0 31 -51 -7 -164 -121z
m204 -376 c0 -8 -19 -13 -24 -6 -3 5 1 9 9 9 8 0 15 -2 15 -3z"/>
<path d="M2490 4581 c0 -6 4 -13 10 -16 6 -3 7 1 4 9 -7 18 -14 21 -14 7z"/>
<path d="M5390 4230 c0 -5 5 -10 11 -10 5 0 7 5 4 10 -3 6 -8 10 -11 10 -2 0
-4 -4 -4 -10z"/>
<path d="M5415 4199 c-5 -7 -4 -10 3 -5 6 3 20 -6 31 -20 12 -15 23 -25 26
-22 3 2 -8 17 -24 32 -21 20 -31 24 -36 15z"/>
<path d="M2976 4145 c4 -8 11 -15 16 -15 6 0 5 6 -2 15 -7 8 -14 15 -16 15 -2
0 -1 -7 2 -15z"/>
<path d="M6710 4146 c0 -2 7 -7 16 -10 8 -3 12 -2 9 4 -6 10 -25 14 -25 6z"/>
<path d="M3056 4065 c4 -8 11 -15 16 -15 6 0 5 6 -2 15 -7 8 -14 15 -16 15 -2
0 -1 -7 2 -15z"/>
<path d="M2426 3879 c-104 -102 -105 -104 -90 -127 9 -14 11 -21 5 -18 -6 4
-11 0 -11 -8 0 -10 9 -16 23 -17 12 0 16 -3 9 -6 -15 -6 18 -39 49 -48 11 -4
19 -15 19 -26 0 -10 7 -19 15 -19 10 0 12 -6 8 -17 -6 -16 -5 -17 13 -3 10 8
16 10 12 6 -4 -5 0 -15 10 -23 16 -12 16 -13 -3 -7 -16 5 -17 4 -5 -5 8 -6 21
-11 29 -11 8 0 20 -8 28 -17 8 -10 12 -12 8 -5 -3 6 -1 12 5 12 6 0 8 5 4 13
-5 8 -2 7 9 -2 15 -12 17 -12 12 2 -4 8 -1 18 6 23 7 4 10 3 5 -4 -3 -6 -2
-14 4 -17 6 -4 10 -3 9 2 -4 15 13 43 22 37 8 -5 14 17 10 39 -1 4 4 7 12 5
14 -3 73 39 65 47 -3 3 -13 -4 -23 -15 -10 -11 -22 -20 -27 -20 -5 0 4 12 21
26 19 16 38 24 49 20 16 -5 16 -5 0 6 -15 11 -15 13 0 26 9 7 11 10 4 7 -11
-6 -11 -3 0 14 12 20 5 29 -93 127 l-107 107 -106 -104z"/>
<path d="M4868 3863 c-49 -47 -88 -88 -88 -91 0 -3 -8 -10 -17 -17 -16 -12
-16 -14 0 -29 20 -21 21 -26 5 -22 -7 1 -10 1 -5 -1 4 -3 5 -9 2 -13 -3 -5 0
-12 6 -16 8 -4 9 -3 5 4 -4 7 -2 12 5 12 6 0 9 -8 7 -18 -4 -13 1 -18 15 -19
11 -1 25 -7 31 -14 8 -8 8 -10 0 -6 -6 3 -11 0 -11 -7 0 -8 8 -11 19 -8 12 3
18 0 16 -9 -2 -8 3 -13 10 -11 7 1 17 -9 22 -23 5 -14 17 -25 27 -25 16 0 16
-2 3 -11 -12 -9 -11 -10 7 -6 17 4 21 1 17 -16 l-3 -20 22 20 c12 11 28 18 35
16 8 -3 16 4 19 15 3 14 10 19 21 15 8 -4 13 -2 10 3 -8 12 17 35 28 26 5 -4
2 2 -6 12 -9 12 -10 17 -3 12 7 -4 21 -2 30 4 16 11 16 11 1 6 -10 -3 -20 -1
-23 5 -4 5 -3 9 2 8 23 -4 67 2 58 9 -13 10 -18 35 -5 27 5 -3 13 1 16 9 3 9
11 13 17 9 5 -3 7 -1 3 5 -3 5 -3 12 1 15 5 2 2 2 -4 1 -15 -4 -16 5 -4 25 6
10 -18 41 -90 112 -54 55 -102 99 -106 99 -4 0 -47 -39 -95 -87z"/>
<path d="M7332 3844 c-70 -70 -102 -110 -98 -120 3 -9 11 -12 17 -8 8 4 9 3 5
-5 -4 -6 -12 -9 -17 -6 -10 7 0 -24 14 -43 6 -7 16 -11 24 -8 8 3 13 -2 13
-12 0 -9 5 -24 11 -32 8 -11 9 -9 4 10 -7 24 -7 24 8 5 8 -11 13 -24 9 -29 -3
-5 2 -7 12 -3 9 4 15 3 12 -1 -7 -11 30 -42 39 -34 4 4 6 3 5 -3 -4 -19 2 -50
7 -37 2 6 9 12 14 12 4 0 5 -7 2 -17 -4 -11 -3 -14 5 -9 7 4 12 2 12 -4 0 -6
5 -8 10 -5 6 4 7 12 3 18 -4 7 2 5 13 -3 10 -8 16 -10 12 -6 -4 5 0 15 10 23
16 14 16 14 -1 9 -11 -4 -16 -2 -11 5 3 6 14 9 25 6 10 -3 25 4 36 16 10 11
12 17 6 13 -7 -4 -13 -2 -13 3 0 6 5 12 10 12 6 1 14 2 19 3 5 0 13 5 18 10 5
5 3 6 -4 2 -7 -4 -13 -2 -13 3 0 6 7 11 15 11 8 0 14 3 13 8 -2 4 2 7 7 7 6 0
9 -4 7 -8 -1 -5 2 -6 7 -2 6 3 7 13 4 22 -5 12 -2 15 10 10 9 -3 16 -3 16 1
-4 25 2 42 14 36 9 -5 9 -4 0 6 -8 9 -9 18 -3 25 6 8 -24 44 -96 116 -57 57
-106 105 -107 105 -1 1 -49 -45 -105 -102z m-68 -170 c3 -8 2 -12 -4 -9 -6 3
-10 10 -10 16 0 14 7 11 14 -7z m256 -108 c0 -3 -4 -8 -10 -11 -5 -3 -10 -1
-10 4 0 6 5 11 10 11 6 0 10 -2 10 -4z"/>
<path d="M3621 3831 c-102 -103 -109 -113 -98 -143 4 -10 9 -25 12 -34 3 -9
11 -14 20 -11 8 4 16 -2 20 -14 4 -10 11 -19 17 -19 6 0 9 -3 5 -6 -11 -11 17
-33 30 -22 8 6 10 3 6 -11 -4 -15 -1 -21 12 -21 11 0 15 -5 11 -16 -3 -8 -2
-12 4 -9 6 3 10 1 10 -5 0 -6 3 -9 8 -7 4 3 16 -5 27 -16 11 -11 15 -17 8 -13
-6 3 -14 3 -17 -2 -2 -4 11 -8 29 -8 18 0 31 4 29 8 -3 4 0 8 7 8 7 0 9 3 6 6
-4 4 -13 1 -22 -6 -10 -8 -15 -9 -15 -1 0 6 11 13 25 17 14 3 25 10 25 16 0 5
5 6 11 2 8 -4 8 0 0 15 -7 12 -8 20 -4 19 12 -3 85 34 79 40 -3 3 -14 -1 -23
-9 -16 -13 -17 -12 -4 4 7 9 23 17 35 17 13 0 16 3 9 8 -8 5 -6 14 8 31 10 13
19 19 19 14 0 -5 -5 -14 -12 -21 -8 -8 -8 -12 -1 -12 17 0 35 58 20 64 -9 3
-9 5 1 5 28 2 6 33 -92 130 l-105 103 -100 -101z"/>
<path d="M6105 3832 c-56 -57 -99 -108 -100 -120 -1 -12 3 -18 8 -15 6 4 8 -3
5 -15 -4 -12 -2 -25 3 -28 5 -3 7 -10 4 -15 -3 -5 0 -7 7 -4 7 3 20 0 28 -5
13 -9 13 -11 0 -21 -13 -9 -12 -10 3 -5 19 6 50 -17 60 -47 4 -10 14 -17 23
-15 10 2 18 -5 20 -16 1 -11 13 -29 25 -40 12 -12 19 -16 15 -10 -3 7 5 15 22
19 15 4 21 10 14 12 -10 4 -8 9 7 20 12 8 27 11 34 7 9 -6 9 -5 0 8 -11 12 -9
18 8 34 12 10 23 18 25 17 10 -7 24 -2 24 8 0 5 -6 7 -12 3 -8 -4 -10 -3 -5 2
5 5 13 10 18 10 5 1 14 2 19 3 6 0 10 6 10 12 0 5 -5 7 -12 3 -6 -4 -8 -3 -4
4 3 6 16 9 27 7 18 -4 19 -2 7 12 -11 14 -11 16 4 11 20 -8 31 15 15 31 -8 8
-8 11 1 11 7 0 12 5 12 11 0 15 -191 209 -205 209 -7 0 -56 -44 -110 -98z
m-45 -188 c0 -2 -9 0 -20 6 -11 6 -20 13 -20 16 0 2 9 0 20 -6 11 -6 20 -13
20 -16z m150 -140 c0 -8 -19 -13 -24 -6 -3 5 1 9 9 9 8 0 15 -2 15 -3z"/>
<path d="M2390 3646 c0 -2 7 -7 16 -10 8 -3 12 -2 9 4 -6 10 -25 14 -25 6z"/>
<path d="M3550 3619 c0 -5 5 -7 10 -4 6 3 10 8 10 11 0 2 -4 4 -10 4 -5 0 -10
-5 -10 -11z"/>
<path d="M4860 3580 c-9 -6 -10 -10 -3 -10 6 0 15 5 18 10 8 12 4 12 -15 0z"/>
<path d="M6289 3563 c-12 -16 -12 -17 2 -6 9 7 20 9 24 5 5 -4 5 -1 1 6 -9 16
-11 15 -27 -5z"/>
<path d="M3805 3550 c-3 -6 1 -7 9 -4 18 7 21 14 7 14 -6 0 -13 -4 -16 -10z"/>
<path d="M4975 3521 c-3 -5 -2 -12 3 -15 5 -3 9 1 9 9 0 17 -3 19 -12 6z"/>
<path d="M3069 3221 c-65 -64 -79 -82 -66 -87 9 -3 17 -11 17 -16 0 -6 -7 -7
-16 -4 -8 3 -12 2 -9 -4 3 -6 11 -10 16 -10 6 0 17 -7 25 -15 9 -8 11 -15 5
-15 -5 0 -13 5 -16 10 -3 6 -11 10 -17 10 -5 0 0 -8 13 -19 13 -10 30 -16 39
-13 13 5 13 3 1 -11 -12 -15 -12 -17 2 -12 8 4 18 1 23 -6 4 -8 3 -10 -4 -5
-7 4 -12 2 -12 -3 0 -6 8 -11 18 -11 9 0 24 -5 32 -11 13 -10 13 -10 -1 -6 -9
3 -16 0 -16 -7 0 -14 39 -16 48 -3 3 5 9 1 12 -8 4 -9 3 -13 -2 -10 -5 3 -12
1 -15 -4 -4 -5 2 -8 11 -6 10 1 17 8 16 14 -2 6 2 11 8 11 5 0 8 4 5 9 -3 4 6
13 19 19 14 7 26 16 26 22 1 5 2 14 3 19 0 5 5 13 10 18 5 5 6 3 2 -4 -4 -8
-1 -13 7 -13 8 0 14 8 13 18 0 10 6 16 16 16 10 -1 16 2 13 6 -3 5 -2 10 2 13
5 2 2 2 -6 0 -11 -3 -12 -1 -1 12 7 8 9 15 5 15 -4 0 -3 6 2 13 6 8 -14 34
-68 85 l-77 73 -83 -80z"/>
<path d="M4245 3190 c-44 -44 -75 -80 -70 -80 6 0 16 -10 24 -22 13 -21 13
-22 -1 -10 -13 10 -17 10 -22 -3 -3 -9 -2 -13 4 -10 6 3 10 1 10 -5 0 -7 7
-10 14 -7 10 4 13 1 10 -7 -3 -7 2 -16 11 -20 10 -3 13 -11 9 -18 -6 -9 -3 -9
9 0 14 12 16 11 12 -8 -3 -17 0 -20 12 -16 11 4 14 2 10 -9 -4 -8 -1 -17 5
-21 7 -4 8 -3 4 4 -4 7 -3 12 3 12 5 0 13 -10 16 -21 6 -17 9 -19 16 -8 7 11
9 11 9 -3 0 -9 6 -20 13 -24 6 -4 9 -4 5 1 -4 4 -2 15 5 23 10 13 9 14 -2 7
-10 -5 -12 -4 -7 4 6 9 11 9 24 -1 12 -10 14 -10 8 0 -4 7 -2 12 6 12 9 0 9 3
-2 10 -13 8 -12 10 3 10 12 0 16 4 11 13 -6 8 -3 8 9 -1 14 -12 16 -11 12 8
-4 18 -2 20 11 9 12 -10 13 -9 9 3 -3 8 4 23 16 34 13 10 19 13 15 7 -5 -9 -2
-11 9 -7 14 6 14 8 -2 21 -17 14 -17 14 1 9 15 -5 17 -4 7 8 -9 10 -9 16 -1
21 7 4 -20 38 -69 86 -43 43 -81 79 -83 79 -2 0 -39 -36 -83 -80z"/>
<path d="M5522 3193 c-55 -57 -70 -78 -62 -88 7 -8 7 -15 1 -19 -5 -3 9 -24
31 -46 23 -22 37 -40 31 -40 -5 0 -19 14 -31 30 -13 17 -28 30 -35 30 -7 0 -4
-5 6 -11 9 -6 14 -16 11 -22 -4 -7 -4 -9 1 -5 5 5 14 -1 22 -12 8 -11 24 -20
36 -20 18 0 19 -2 7 -10 -12 -8 -10 -10 8 -10 13 0 20 -4 17 -10 -3 -5 1 -10
11 -10 14 0 15 -2 3 -17 -13 -16 -11 -16 15 1 16 10 26 14 23 9 -3 -5 -1 -15
4 -23 9 -13 10 -13 6 0 -6 21 11 50 28 50 10 0 12 6 8 18 -6 14 -4 15 9 4 13
-11 16 -10 14 5 0 11 5 18 16 17 10 -1 17 1 16 5 -2 20 3 31 12 26 7 -4 9 3 6
19 -3 14 0 26 5 26 26 0 1 38 -67 105 -43 41 -77 74 -78 74 -1 -1 -34 -35 -74
-76z"/>
<path d="M6743 3203 c-38 -38 -72 -76 -76 -86 -4 -10 -3 -16 2 -13 7 5 21 -14
25 -34 1 -3 5 -12 11 -20 8 -13 7 -13 -8 -1 -9 7 -14 18 -10 24 4 6 1 7 -6 3
-9 -6 -9 -12 3 -25 9 -10 13 -21 9 -25 -4 -4 1 -4 10 0 20 7 49 -23 42 -44 -3
-9 0 -10 15 -2 24 13 30 13 30 -1 0 -5 -4 -7 -10 -4 -15 9 -12 -4 5 -21 8 -9
15 -12 15 -8 0 3 8 0 17 -7 13 -11 15 -11 9 -1 -6 9 -3 12 10 10 14 -2 19 3
18 20 -1 17 2 20 11 12 10 -8 13 -6 11 7 0 12 5 17 17 17 14 -2 15 1 7 11 -9
11 -6 13 14 11 19 -3 24 1 21 16 -3 14 0 18 10 14 8 -3 17 0 21 6 4 6 3 8 -3
5 -6 -4 -14 0 -17 8 -3 9 1 18 9 21 8 4 15 11 15 17 0 12 -140 157 -151 157
-4 0 -38 -30 -76 -67z"/>
<path d="M6655 3080 c-3 -6 1 -7 9 -4 18 7 21 14 7 14 -6 0 -13 -4 -16 -10z"/>
<path d="M3697 2600 c-26 -28 -47 -56 -46 -63 3 -26 -1 -38 -13 -31 -7 4 -8 3
-4 -5 4 -6 11 -9 15 -6 5 2 17 -3 27 -11 10 -9 13 -13 7 -9 -7 3 -13 1 -13 -4
0 -6 9 -11 20 -11 18 0 55 -51 45 -62 -2 -2 4 -4 15 -4 10 0 16 5 13 10 -4 5
1 7 11 3 13 -5 17 -3 13 7 -3 8 6 24 21 37 l27 24 -23 -26 c-16 -18 -20 -29
-13 -34 7 -3 10 -3 9 2 -4 10 38 65 47 63 4 -1 9 1 13 4 3 3 1 6 -5 6 -5 0
-10 7 -10 15 0 8 4 12 9 9 5 -4 8 2 6 12 -3 20 -100 124 -114 124 -5 0 -31
-23 -57 -50z"/>
<path d="M6152 2569 c-46 -45 -52 -56 -48 -83 3 -17 10 -32 15 -34 6 -2 11 -8
11 -13 0 -6 -5 -7 -12 -3 -7 4 -8 3 -4 -5 6 -9 11 -9 22 0 12 10 13 9 7 -6 -5
-14 -3 -17 9 -12 9 3 19 0 22 -8 3 -10 0 -12 -12 -8 -14 6 -15 5 -2 -9 8 -8
21 -13 29 -10 10 4 12 1 6 -9 -4 -8 -5 -11 0 -7 4 4 15 2 24 -5 14 -11 14 -10
2 6 -9 12 -10 17 -2 17 7 0 9 4 6 10 -3 5 0 7 7 5 8 -3 24 6 36 20 13 14 26
23 31 20 5 -2 8 11 7 30 -1 19 2 36 7 38 4 1 -19 28 -51 60 l-58 57 -52 -51z
m143 -118 c-3 -6 -11 -11 -16 -11 -5 0 -4 6 3 14 14 16 24 13 13 -3z"/>
<path d="M4902 2535 c-48 -51 -60 -85 -28 -85 6 0 5 -4 -4 -9 -8 -6 -19 -7
-25 -3 -5 3 -4 -2 4 -12 8 -9 19 -15 26 -12 15 5 38 -31 28 -47 -4 -7 2 -5 12
3 10 8 16 10 12 3 -4 -6 -3 -14 3 -18 6 -4 7 -12 3 -18 -4 -8 -1 -7 9 1 14 11
18 10 26 -4 8 -15 9 -15 15 0 5 12 3 15 -6 10 -6 -4 -3 2 8 13 11 11 29 19 39
19 11 -1 20 6 22 17 1 9 -2 15 -7 11 -5 -3 -7 -10 -4 -15 3 -5 -1 -6 -10 -3
-14 6 -13 9 5 21 12 8 29 12 38 9 15 -5 15 -4 1 6 -13 9 -14 16 -6 39 10 26 8
31 -42 79 -30 27 -57 50 -61 50 -4 0 -30 -25 -58 -55z"/>
<path d="M3690 2446 c0 -2 7 -9 15 -16 13 -11 14 -10 9 4 -5 14 -24 23 -24 12z"/>
<path d="M4875 2390 c-3 -5 -1 -10 4 -10 6 0 11 5 11 10 0 6 -2 10 -4 10 -3 0
-8 -4 -11 -10z"/>
<path d="M4350 1950 c-35 -40 -47 -77 -22 -72 8 1 11 -2 7 -8 -4 -6 -13 -9
-21 -6 -11 4 -11 2 -2 -14 8 -12 15 -15 19 -9 4 7 9 4 13 -6 3 -10 11 -13 18
-9 8 5 7 0 -2 -11 -9 -11 -10 -16 -2 -11 6 4 12 3 12 -2 0 -15 28 -23 36 -10
4 6 3 8 -4 4 -6 -3 -13 -2 -16 3 -3 4 4 8 17 7 15 -1 22 4 21 16 -1 14 2 15
17 8 15 -9 17 -8 12 7 -5 12 -2 15 10 10 9 -3 19 -1 23 5 5 7 2 8 -6 3 -10 -6
-12 -4 -7 8 4 12 1 15 -11 11 -15 -5 -15 -4 -1 8 9 7 14 19 12 25 -5 15 -72
83 -81 83 -4 0 -23 -18 -42 -40z"/>
<path d="M5525 1919 c-35 -34 -39 -41 -28 -58 9 -14 9 -22 2 -27 -14 -9 41
-66 58 -60 7 3 13 -2 14 -12 0 -9 3 -12 5 -5 3 7 13 9 22 6 15 -6 15 -5 3 10
-12 15 -11 17 10 17 19 0 21 2 9 10 -12 8 -11 10 7 10 16 0 21 4 17 15 -4 8
-11 12 -18 8 -6 -3 -2 4 8 16 l20 22 -45 44 -44 43 -40 -39z m-4 -106 c13 -16
12 -17 -3 -4 -10 7 -18 15 -18 17 0 8 8 3 21 -13z"/>
<path d="M4973 1334 c-23 -24 -31 -64 -14 -64 5 0 11 -10 14 -22 6 -22 6 -22
-8 -4 -8 11 -15 15 -15 9 0 -11 32 -43 44 -43 4 0 4 5 0 12 -5 7 -3 8 7 2 21
-13 38 -14 46 -2 4 7 1 8 -7 3 -8 -5 -11 -3 -8 6 3 8 13 13 23 12 16 -1 16 0
2 15 -15 14 -15 16 0 27 13 10 11 15 -17 43 -17 18 -35 32 -38 31 -4 -1 -17
-12 -29 -25z"/>
</g>
</svg>
